<svg width="49" height="48" viewBox="0 0 49 48" fill="none" xmlns="http://www.w3.org/2000/svg">
<path d="M32.1917 11.5C32.5901 11.5 32.9722 11.342 33.2539 11.0607C33.5356 10.7794 33.6939 10.3978 33.6939 10V7C33.6939 6.60218 33.5356 6.22064 33.2539 5.93934C32.9722 5.65804 32.5901 5.5 32.1917 5.5C31.7933 5.5 31.4112 5.65804 31.1295 5.93934C30.8478 6.22064 30.6896 6.60218 30.6896 7V10C30.6896 10.3978 30.8478 10.7794 31.1295 11.0607C31.4112 11.342 31.7933 11.5 32.1917 11.5Z" fill="#09D9B9"/>
<path d="M42.206 6C42.206 4.4087 41.573 2.88258 40.4461 1.75736C39.3193 0.632141 37.791 0 36.1974 0L12.1631 0C10.5695 0 9.04122 0.632141 7.91439 1.75736C6.78756 2.88258 6.15452 4.4087 6.15452 6V42C6.15452 43.5913 6.78756 45.1174 7.91439 46.2426C9.04122 47.3679 10.5695 48 12.1631 48H36.1974C37.791 48 39.3193 47.3679 40.4461 46.2426C41.573 45.1174 42.206 43.5913 42.206 42V6ZM24.1803 28C24.5764 28 24.9636 28.1173 25.293 28.3371C25.6224 28.5568 25.8791 28.8692 26.0307 29.2346C26.1823 29.6001 26.2219 30.0022 26.1446 30.3902C26.0674 30.7781 25.8766 31.1345 25.5965 31.4142C25.3164 31.6939 24.9595 31.8844 24.571 31.9616C24.1825 32.0387 23.7798 31.9991 23.4138 31.8478C23.0478 31.6964 22.735 31.44 22.515 31.1111C22.2949 30.7822 22.1774 30.3956 22.1774 30C22.1774 29.4696 22.3884 28.9609 22.764 28.5858C23.1396 28.2107 23.6491 28 24.1803 28ZM22.1774 21C22.1774 20.6044 22.2949 20.2178 22.515 19.8889C22.735 19.56 23.0478 19.3036 23.4138 19.1522C23.7798 19.0009 24.1825 18.9613 24.571 19.0384C24.9595 19.1156 25.3164 19.3061 25.5965 19.5858C25.8766 19.8655 26.0674 20.2219 26.1446 20.6098C26.2219 20.9978 26.1823 21.3999 26.0307 21.7654C25.8791 22.1308 25.6224 22.4432 25.293 22.6629C24.9636 22.8827 24.5764 23 24.1803 23C23.6491 23 23.1396 22.7893 22.764 22.4142C22.3884 22.0391 22.1774 21.5304 22.1774 21ZM33.1931 37.5C33.5915 37.5 33.9736 37.658 34.2553 37.9393C34.537 38.2206 34.6953 38.6022 34.6953 39C34.6953 39.3978 34.537 39.7794 34.2553 40.0607C33.9736 40.342 33.5915 40.5 33.1931 40.5H22.1774C21.779 40.5 21.3969 40.342 21.1152 40.0607C20.8335 39.7794 20.6753 39.3978 20.6753 39C20.6753 38.6022 20.8335 38.2206 21.1152 37.9393C21.3969 37.658 21.779 37.5 22.1774 37.5H33.1931ZM33.1931 32C32.797 32 32.4098 31.8827 32.0804 31.6629C31.751 31.4432 31.4943 31.1308 31.3427 30.7654C31.1912 30.3999 31.1515 29.9978 31.2288 29.6098C31.306 29.2219 31.4968 28.8655 31.7769 28.5858C32.057 28.3061 32.4139 28.1156 32.8024 28.0384C33.1909 27.9613 33.5936 28.0009 33.9596 28.1522C34.3256 28.3036 34.6384 28.56 34.8585 28.8889C35.0785 29.2178 35.196 29.6044 35.196 30C35.196 30.5304 34.985 31.0391 34.6094 31.4142C34.2338 31.7893 33.7243 32 33.1931 32ZM33.1931 23C32.797 23 32.4098 22.8827 32.0804 22.6629C31.751 22.4432 31.4943 22.1308 31.3427 21.7654C31.1912 21.3999 31.1515 20.9978 31.2288 20.6098C31.306 20.2219 31.4968 19.8655 31.7769 19.5858C32.057 19.3061 32.4139 19.1156 32.8024 19.0384C33.1909 18.9613 33.5936 19.0009 33.9596 19.1522C34.3256 19.3036 34.6384 19.56 34.8585 19.8889C35.0785 20.2178 35.196 20.6044 35.196 21C35.196 21.5304 34.985 22.0391 34.6094 22.4142C34.2338 22.7893 33.7243 23 33.1931 23ZM15.1674 32C14.7713 32 14.384 31.8827 14.0547 31.6629C13.7253 31.4432 13.4686 31.1308 13.317 30.7654C13.1654 30.3999 13.1257 29.9978 13.203 29.6098C13.2803 29.2219 13.4711 28.8655 13.7512 28.5858C14.0313 28.3061 14.3881 28.1156 14.7767 28.0384C15.1652 27.9613 15.5679 28.0009 15.9339 28.1522C16.2998 28.3036 16.6126 28.56 16.8327 28.8889C17.0528 29.2178 17.1703 29.6044 17.1703 30C17.1703 30.5304 16.9592 31.0391 16.5836 31.4142C16.208 31.7893 15.6986 32 15.1674 32ZM17.1703 39C17.1703 39.3956 17.0528 39.7822 16.8327 40.1111C16.6126 40.44 16.2998 40.6964 15.9339 40.8478C15.5679 40.9991 15.1652 41.0387 14.7767 40.9616C14.3881 40.8844 14.0313 40.6939 13.7512 40.4142C13.4711 40.1345 13.2803 39.7781 13.203 39.3902C13.1257 39.0022 13.1654 38.6001 13.317 38.2346C13.4686 37.8692 13.7253 37.5568 14.0547 37.3371C14.384 37.1173 14.7713 37 15.1674 37C15.6986 37 16.208 37.2107 16.5836 37.5858C16.9592 37.9609 17.1703 38.4696 17.1703 39ZM15.1674 23C14.7713 23 14.384 22.8827 14.0547 22.6629C13.7253 22.4432 13.4686 22.1308 13.317 21.7654C13.1654 21.3999 13.1257 20.9978 13.203 20.6098C13.2803 20.2219 13.4711 19.8655 13.7512 19.5858C14.0313 19.3061 14.3881 19.1156 14.7767 19.0384C15.1652 18.9613 15.5679 19.0009 15.9339 19.1522C16.2998 19.3036 16.6126 19.56 16.8327 19.8889C17.0528 20.2178 17.1703 20.6044 17.1703 21C17.1703 21.5304 16.9592 22.0391 16.5836 22.4142C16.208 22.7893 15.6986 23 15.1674 23ZM12.1631 4H36.1974C36.7286 4 37.2381 4.21071 37.6137 4.58579C37.9893 4.96086 38.2003 5.46957 38.2003 6V12.5C38.2003 12.6326 38.1475 12.7598 38.0536 12.8536C37.9597 12.9473 37.8324 13 37.6996 13H10.661C10.5282 13 10.4008 12.9473 10.3069 12.8536C10.213 12.7598 10.1602 12.6326 10.1602 12.5V6C10.1602 5.46957 10.3713 4.96086 10.7469 4.58579C11.1225 4.21071 11.6319 4 12.1631 4Z" fill="#09D9B9"/>
</svg>
