<svg width="38" height="38" viewBox="0 0 38 38" fill="none" xmlns="http://www.w3.org/2000/svg">
<g clip-path="url(#clip0)">
<path d="M31.9042 6.39667C31.7256 6.36022 31.5651 6.26329 31.4497 6.12224C31.3343 5.98119 31.2712 5.80465 31.2708 5.62242V3.16667C31.2708 2.32681 30.9372 1.52136 30.3433 0.927495C29.7495 0.33363 28.944 0 28.1042 0L8.3125 0C7.05272 0 5.84454 0.500445 4.95374 1.39124C4.06295 2.28204 3.5625 3.49022 3.5625 4.75V33.25C3.5625 34.5098 4.06295 35.718 4.95374 36.6088C5.84454 37.4996 7.05272 38 8.3125 38H31.2708C32.1107 38 32.9161 37.6664 33.51 37.0725C34.1039 36.4786 34.4375 35.6732 34.4375 34.8333V9.5C34.4377 8.76999 34.1856 8.06234 33.7239 7.49683C33.2623 6.93132 32.6194 6.54267 31.9042 6.39667ZM6.72917 4.75C6.72917 4.33007 6.89598 3.92735 7.19291 3.63041C7.48985 3.33348 7.89257 3.16667 8.3125 3.16667H27.7083C27.8133 3.16667 27.914 3.20837 27.9882 3.2826C28.0625 3.35684 28.1042 3.45752 28.1042 3.5625V5.9375C28.1042 6.04248 28.0625 6.14316 27.9882 6.2174C27.914 6.29163 27.8133 6.33333 27.7083 6.33333H8.3125C7.89257 6.33333 7.48985 6.16652 7.19291 5.86959C6.89598 5.57265 6.72917 5.16993 6.72917 4.75ZM28.2213 31.6413C28.1471 31.7305 28.0541 31.8022 27.949 31.8515C27.844 31.9007 27.7294 31.9263 27.6133 31.9263H10.3867C10.2708 31.9265 10.1563 31.9013 10.0513 31.8524C9.94621 31.8035 9.85319 31.7321 9.77874 31.6433C9.7043 31.5545 9.65025 31.4505 9.62042 31.3385C9.59058 31.2265 9.58569 31.1094 9.60608 30.9953C9.74825 30.1711 10.0074 29.3713 10.3756 28.6203C11.0833 27.2017 12.8646 26.3308 16.1199 25.1243C16.2567 24.7401 16.2523 24.3197 16.1073 23.9384C14.8331 22.338 14.2034 20.319 14.3418 18.278C14.3089 17.6458 14.4049 17.0136 14.6241 16.4198C14.8433 15.8259 15.1811 15.2829 15.6169 14.8238C16.0527 14.3647 16.5774 13.999 17.159 13.7492C17.7406 13.4994 18.367 13.3705 19 13.3705C19.633 13.3705 20.2594 13.4994 20.841 13.7492C21.4226 13.999 21.9473 14.3647 22.3831 14.8238C22.8189 15.2829 23.1567 15.8259 23.3759 16.4198C23.5951 17.0136 23.6911 17.6458 23.6582 18.278C23.7956 20.3354 23.156 22.3695 21.8658 23.978C21.7369 24.359 21.7515 24.774 21.907 25.1449C25.1354 26.334 26.9167 27.2032 27.6244 28.6283C27.9926 29.3793 28.2518 30.179 28.3939 31.0033C28.4128 31.1158 28.4072 31.231 28.3774 31.3412C28.3476 31.4513 28.2944 31.5537 28.2213 31.6413Z" fill="#09D9B9"/>
</g>
<defs>
<clipPath id="clip0">
<rect width="38" height="38" fill="white"/>
</clipPath>
</defs>
</svg>
