<svg width="52" height="52" viewBox="0 0 52 52" fill="none" xmlns="http://www.w3.org/2000/svg">
<g clip-path="url(#clip0)">
<path d="M11.9167 35.1173V35.0415C11.9203 34.5082 11.7272 33.9923 11.3742 33.5925C11.0212 33.1928 10.5332 32.9372 10.0035 32.8748C8.4166 32.8894 6.88388 32.2982 5.71784 31.2217C5.23314 30.7067 4.85999 30.0972 4.62175 29.4313C4.38352 28.7655 4.28533 28.0576 4.33334 27.352C4.33392 25.866 4.92435 24.4409 5.97493 23.3899C7.02551 22.339 8.45031 21.748 9.93635 21.7468C10.3259 21.7476 10.7143 21.7883 11.0955 21.8682C11.4002 21.9299 11.7146 21.9259 12.0176 21.8564C12.3206 21.7869 12.6053 21.6535 12.8527 21.4652C13.1125 21.2662 13.3239 21.011 13.471 20.7187C13.6181 20.4264 13.6971 20.1045 13.702 19.7773C13.8775 7.31033 31.6853 3.82417 37.141 15.3465C37.3193 15.7321 37.6086 16.0557 37.9717 16.2761C38.3349 16.4964 38.7555 16.6035 39.1798 16.5837C40.3924 16.5229 41.6029 16.7396 42.7191 17.2171C43.8354 17.6947 44.828 18.4206 45.6213 19.3397C47.0197 20.9378 47.7517 23.0115 47.6667 25.1333C47.6219 26.8782 47.0072 28.5605 45.9164 29.9232C44.8256 31.2859 43.3188 32.2541 41.626 32.6798C41.1839 32.8078 40.7952 33.0757 40.5182 33.4433C40.2412 33.8109 40.0909 34.2584 40.0898 34.7187C40.0878 35.048 40.1626 35.3733 40.3082 35.6687C40.4538 35.9641 40.6663 36.2214 40.9288 36.4204C41.1912 36.6193 41.4964 36.7544 41.8202 36.8148C42.1439 36.8752 42.4773 36.8593 42.7938 36.7683C45.392 36.1382 47.7068 34.6616 49.3735 32.5713C51.0403 30.4809 51.9643 27.8954 52 25.2222C52.124 22.0321 51.022 18.9157 48.9203 16.5126C46.8187 14.1096 43.8768 12.6023 40.6987 12.3002C40.6142 12.292 40.5329 12.2642 40.461 12.2191C40.3892 12.1739 40.3289 12.1127 40.2848 12.0402C38.5715 9.17822 36.038 6.89685 33.0128 5.49171C29.9875 4.08657 26.61 3.62243 23.3179 4.15944C20.0258 4.69645 16.9708 6.20986 14.549 8.50354C12.1271 10.7972 10.4499 13.7654 9.73485 17.0235C9.71115 17.1394 9.65031 17.2444 9.56155 17.3226C9.4728 17.4008 9.36096 17.4479 9.24301 17.4568C7.6329 17.5735 6.07452 18.0759 4.69955 18.9218C3.32457 19.7677 2.17342 20.9321 1.34334 22.3167C0.397727 23.9167 -0.068528 25.7547 1.07624e-05 27.612C-0.0227125 28.85 0.202303 30.08 0.661829 31.2297C1.12135 32.3795 1.80611 33.4257 2.67584 34.307C4.56538 36.0481 6.99881 37.0822 9.56368 37.2342C9.86025 37.2644 10.1599 37.2322 10.4433 37.1397C10.7267 37.0472 10.9875 36.8964 11.2092 36.6971C11.4308 36.4977 11.6082 36.2541 11.7301 35.9821C11.8519 35.71 11.9155 35.4154 11.9167 35.1173Z" fill="#09D9B9"/>
<path d="M36.8334 32.8878C36.8247 32.1086 36.54 31.3576 36.0298 30.7685C35.5196 30.1794 34.8171 29.7903 34.047 29.6703C33.9184 29.6516 33.8008 29.5872 33.7156 29.489C33.6305 29.3907 33.5836 29.2652 33.5834 29.1352V26.9295C33.5834 24.9183 32.7844 22.9894 31.3622 21.5673C29.9401 20.1451 28.0112 19.3462 26 19.3462C23.9888 19.3462 22.0599 20.1451 20.6378 21.5673C19.2156 22.9894 18.4167 24.9183 18.4167 26.9295V29.1352C18.4166 29.2648 18.3699 29.3902 18.2852 29.4884C18.2005 29.5866 18.0834 29.6511 17.9552 29.6703C17.1846 29.7894 16.4813 30.1782 15.9706 30.7674C15.4599 31.3567 15.175 32.1081 15.1667 32.8878V44.8045C15.1667 45.6665 15.5091 46.4931 16.1186 47.1026C16.7281 47.7121 17.5547 48.0545 18.4167 48.0545H33.5834C34.4453 48.0545 35.272 47.7121 35.8814 47.1026C36.4909 46.4931 36.8334 45.6665 36.8334 44.8045V32.8878ZM26 42.0962C25.5715 42.0962 25.1526 41.9691 24.7963 41.731C24.44 41.4929 24.1623 41.1546 23.9983 40.7586C23.8343 40.3627 23.7914 39.9271 23.875 39.5068C23.9586 39.0865 24.1649 38.7004 24.468 38.3974C24.771 38.0944 25.157 37.8881 25.5773 37.8045C25.9976 37.7209 26.4333 37.7638 26.8292 37.9278C27.2251 38.0917 27.5635 38.3695 27.8015 38.7258C28.0396 39.0821 28.1667 39.501 28.1667 39.9295C28.1667 40.5041 27.9384 41.0552 27.5321 41.4616C27.1258 41.8679 26.5747 42.0962 26 42.0962ZM22.75 26.9295C22.75 26.0675 23.0924 25.2409 23.7019 24.6314C24.3114 24.0219 25.1381 23.6795 26 23.6795C26.862 23.6795 27.6886 24.0219 28.2981 24.6314C28.9076 25.2409 29.25 26.0675 29.25 26.9295V29.0962C29.25 29.2398 29.193 29.3776 29.0914 29.4792C28.9898 29.5808 28.852 29.6378 28.7084 29.6378H23.2917C23.148 29.6378 23.0103 29.5808 22.9087 29.4792C22.8071 29.3776 22.75 29.2398 22.75 29.0962V26.9295Z" fill="#09D9B9"/>
</g>
<defs>
<clipPath id="clip0">
<rect width="52" height="52" fill="white"/>
</clipPath>
</defs>
</svg>
