<svg width="51" height="51" viewBox="0 0 51 51" fill="none" xmlns="http://www.w3.org/2000/svg">
<path d="M43.0716 18.8465C41.8415 17.885 40.3256 17.3615 38.7642 17.359C38.3358 17.3613 37.9086 17.4069 37.4892 17.495C37.3952 17.5148 37.3082 17.5595 37.2375 17.6246C37.1669 17.6897 37.1151 17.7727 37.0876 17.8648C37.0599 17.9565 37.0578 18.054 37.0813 18.1469C37.1049 18.2397 37.1534 18.3244 37.2215 18.3918L45.509 26.6793C46.4891 27.6176 47.1612 28.8314 47.4364 30.16C47.6332 31.1822 47.5767 32.2371 47.2719 33.2324C46.967 34.2277 46.423 35.1333 45.6875 35.8699L44.8736 36.6859C44.8194 36.7393 44.7775 36.8038 44.7507 36.875C44.7239 36.9461 44.7129 37.0223 44.7185 37.0982C44.724 37.1744 44.7458 37.2486 44.7824 37.3157C44.8191 37.3828 44.8698 37.4412 44.931 37.487L45.3241 37.7824C45.4916 37.908 45.6326 38.0653 45.7393 38.2454C45.8459 38.4255 45.916 38.6248 45.9456 38.832C45.9752 39.0392 45.9637 39.2502 45.9118 39.4529C45.8598 39.6557 45.7684 39.8462 45.6429 40.0137C45.5173 40.1811 45.36 40.3222 45.1799 40.4288C44.9998 40.5354 44.8005 40.6055 44.5933 40.6351C44.3861 40.6647 44.1751 40.6532 43.9723 40.6013C43.7696 40.5493 43.5791 40.458 43.4116 40.3324L36.4501 35.1113L36.4267 35.0943L36.0017 34.8074C35.7295 34.6367 35.4338 34.5064 35.1241 34.4207C34.4236 34.2136 33.6742 34.245 32.9934 34.5099C32.3127 34.7748 31.7392 35.2581 31.3628 35.8842C30.9864 36.5102 30.8286 37.2435 30.914 37.969C30.9994 38.6944 31.3232 39.371 31.8346 39.8925L32.2469 40.3027C32.3463 40.4026 32.4021 40.5378 32.4021 40.6788C32.4021 40.8197 32.3463 40.955 32.2469 41.0549L30.7594 42.5424C30.7102 42.5918 30.6518 42.631 30.5874 42.6578C30.523 42.6845 30.454 42.6983 30.3843 42.6983C30.3146 42.6983 30.2456 42.6845 30.1812 42.6578C30.1169 42.631 30.0584 42.5918 30.0092 42.5424L11.7428 24.3014C11.6435 24.2018 11.5877 24.0669 11.5877 23.9263C11.5877 23.7857 11.6435 23.6509 11.7428 23.5513L22.5505 12.7499C22.5997 12.7002 22.6583 12.6607 22.7228 12.6338C22.7874 12.6068 22.8567 12.5929 22.9266 12.5929C22.9966 12.5929 23.0658 12.6068 23.1304 12.6338C23.195 12.6607 23.2535 12.7002 23.3027 12.7499L41.548 30.9952C41.6473 31.0947 41.703 31.2296 41.703 31.3702C41.703 31.5108 41.6473 31.6457 41.548 31.7453L40.273 33.0075C40.122 33.1577 40.0033 33.3372 39.9241 33.5349C39.845 33.7326 39.807 33.9443 39.8126 34.1572C39.8181 34.3701 39.8671 34.5796 39.9565 34.7729C40.0459 34.9662 40.1739 35.1392 40.3325 35.2813C40.6247 35.5453 41.0057 35.6895 41.3996 35.6852C41.7934 35.6808 42.1711 35.5283 42.4575 35.2579L43.7941 33.9999L43.8069 33.985C44.5028 33.2885 44.8937 32.3442 44.8937 31.3596C44.8937 30.375 44.5028 29.4307 43.8069 28.7342L25.5553 10.4889C24.8579 9.79207 23.9124 9.40063 22.9266 9.40063C21.9408 9.40063 20.9953 9.79207 20.298 10.4889L9.49025 21.2967C9.14464 21.6418 8.87046 22.0518 8.68339 22.503C8.49633 22.9542 8.40004 23.4379 8.40004 23.9263C8.40004 24.4148 8.49633 24.8985 8.68339 25.3497C8.87046 25.8009 9.14464 26.2108 9.49025 26.556L27.7355 44.8013C28.4336 45.4966 29.3788 45.8869 30.3641 45.8869C31.3494 45.8869 32.2946 45.4966 32.9927 44.8013L34.4802 43.3138C34.5807 43.2152 34.7156 43.1595 34.8564 43.1587C34.9263 43.1588 34.9956 43.1728 35.0601 43.1998C35.1247 43.2267 35.1832 43.2662 35.2325 43.3159L36.0188 44.1C36.2652 44.3465 36.5309 44.5697 36.7986 44.7928C37.9268 45.7437 39.2246 46.4726 40.6236 46.9412L50.0416 50.0798C50.1214 50.1059 50.2063 50.1128 50.2893 50.0999C50.3722 50.087 50.451 50.0547 50.5191 50.0056C50.5873 49.9565 50.6429 49.892 50.6814 49.8174C50.7199 49.7428 50.7402 49.6601 50.7407 49.5762V25.0749C50.7403 24.9925 50.7208 24.9113 50.684 24.8377C50.6472 24.764 50.5939 24.6997 50.5282 24.6499L43.0716 18.8465Z" fill="#09D9B9"/>
<path d="M16.7344 4.0863C17.1571 4.0863 17.5624 3.91839 17.8613 3.61951C18.1602 3.32062 18.3281 2.91524 18.3281 2.49255C18.3281 2.06986 18.1602 1.66449 17.8613 1.3656C17.5624 1.06672 17.1571 0.898804 16.7344 0.898804C12.3681 0.903865 8.18219 2.64059 5.0948 5.72798C2.00741 8.81537 0.270687 13.0013 0.265625 17.3676C0.265625 17.7902 0.433537 18.1956 0.732424 18.4945C1.03131 18.7934 1.43669 18.9613 1.85938 18.9613C2.28206 18.9613 2.68744 18.7934 2.98633 18.4945C3.28521 18.1956 3.45312 17.7902 3.45312 17.3676C3.45706 13.8464 4.8576 10.4705 7.34746 7.98064C9.83733 5.49078 13.2132 4.09024 16.7344 4.0863Z" fill="#09D9B9"/>
<path d="M10.2467 16.7876C10.2744 16.7185 10.2972 16.6475 10.3147 16.5751C10.4888 15.1441 11.1372 13.8127 12.1563 12.7932C13.1754 11.7737 14.5066 11.1248 15.9375 10.9502C16.0103 10.9315 16.0814 10.9066 16.15 10.8758C16.4181 10.8054 16.6628 10.665 16.8588 10.469C17.0548 10.273 17.1952 10.0284 17.2656 9.76022C17.318 9.56939 17.3331 9.37027 17.3102 9.17372C17.2853 8.9658 17.2194 8.76487 17.1165 8.58251C17.0135 8.40015 16.8755 8.23997 16.7104 8.11118C16.5453 7.9824 16.3563 7.88756 16.1543 7.83213C15.9524 7.7767 15.7415 7.76178 15.5337 7.78822C13.4019 8.05049 11.4189 9.01809 9.90023 10.5371C8.38158 12.0562 7.41448 14.0394 7.15275 16.1713C7.12689 16.3793 7.14228 16.5903 7.19804 16.7922C7.25381 16.9942 7.34885 17.1832 7.47774 17.3484C7.60662 17.5136 7.76682 17.6518 7.94916 17.755C8.1315 17.8582 8.3324 17.9245 8.54037 17.95C8.6052 17.9584 8.6705 17.9627 8.73587 17.9627C8.87255 17.9552 9.00762 17.9294 9.1375 17.8862C9.40243 17.8163 9.64434 17.678 9.83901 17.4852C10.0337 17.2924 10.1743 17.0518 10.2467 16.7876Z" fill="#09D9B9"/>
<path d="M18.4556 20.5935C18.3843 20.8571 18.383 21.1348 18.452 21.399C18.5209 21.6633 18.6577 21.9049 18.8488 22.1001L19.6223 22.8757C19.7066 22.9599 19.7603 23.07 19.7745 23.1883C19.7888 23.3066 19.7628 23.4263 19.7009 23.5281C19.324 24.1385 19.1445 24.8503 19.1869 25.5665C19.2294 26.2826 19.4917 26.9682 19.938 27.5299C20.3844 28.0915 20.9931 28.5018 21.6812 28.7048C22.3693 28.9078 23.1033 28.8936 23.783 28.6642L28.0968 27.2277C28.1641 27.2062 28.2366 27.2078 28.3029 27.2323C28.3692 27.2568 28.4254 27.3028 28.4625 27.3629C28.4997 27.423 28.5156 27.4938 28.5079 27.564C28.5001 27.6343 28.4691 27.6999 28.4197 27.7505L25.4001 30.768C25.1011 31.0669 24.9332 31.4725 24.9332 31.8953C24.9332 32.3181 25.1011 32.7236 25.4001 33.0226C25.6991 33.3216 26.1046 33.4895 26.5274 33.4895C26.9503 33.4895 27.3558 33.3216 27.6547 33.0226L28.3369 32.3405C28.386 32.2911 28.4445 32.2519 28.5089 32.2251C28.5732 32.1983 28.6422 32.1846 28.7119 32.1846C28.7816 32.1846 28.8507 32.1983 28.915 32.2251C28.9794 32.2519 29.0378 32.2911 29.087 32.3405L29.7691 33.0226C29.9162 33.1747 30.0921 33.2961 30.2866 33.3795C30.4811 33.4629 30.6903 33.5068 30.9019 33.5085C31.1135 33.5103 31.3233 33.4699 31.5192 33.3896C31.715 33.3094 31.8929 33.191 32.0424 33.0413C32.192 32.8916 32.3103 32.7136 32.3903 32.5177C32.4704 32.3217 32.5106 32.1119 32.5086 31.9002C32.5067 31.6886 32.4626 31.4795 32.379 31.2851C32.2954 31.0907 32.1739 30.9149 32.0216 30.768L31.2503 29.9945C31.1659 29.9103 31.1122 29.8002 31.098 29.6819C31.0837 29.5636 31.1097 29.4439 31.1716 29.3421C31.5483 28.7313 31.7276 28.0193 31.685 27.303C31.6423 26.5866 31.3798 25.9009 30.9333 25.3391C30.4868 24.7774 29.878 24.367 29.1897 24.1638C28.5015 23.9607 27.7674 23.9746 27.0874 24.2038L22.7758 25.6403C22.72 25.6594 22.66 25.6626 22.6026 25.6494C22.5452 25.6363 22.4925 25.6074 22.4506 25.566C22.3922 25.5064 22.3595 25.4263 22.3595 25.3428C22.3595 25.2594 22.3922 25.1793 22.4506 25.1197L25.4703 22.1001C25.7518 21.798 25.905 21.3984 25.8977 20.9855C25.8905 20.5726 25.7232 20.1786 25.4312 19.8866C25.1392 19.5946 24.7453 19.4274 24.3324 19.4201C23.9195 19.4128 23.5199 19.5661 23.2178 19.8476L22.5356 20.5297C22.4354 20.6286 22.3003 20.684 22.1595 20.684C22.0187 20.684 21.8836 20.6286 21.7834 20.5297L21.1034 19.8476C20.9079 19.6571 20.6662 19.5207 20.4021 19.4518C20.1379 19.3829 19.8604 19.3838 19.5968 19.4545C19.3137 19.5067 19.0531 19.6435 18.8494 19.8469C18.6457 20.0502 18.5084 20.3105 18.4556 20.5935Z" fill="#09D9B9"/>
</svg>
