<svg width="51" height="51" viewBox="0 0 51 51" fill="none" xmlns="http://www.w3.org/2000/svg">
<path d="M1.0625 38.25C1.0625 39.3772 1.51027 40.4582 2.3073 41.2552C3.10433 42.0522 4.18533 42.5 5.3125 42.5H45.6875C46.8147 42.5 47.8957 42.0522 48.6927 41.2552C49.4897 40.4582 49.9375 39.3772 49.9375 38.25V20.1875C49.9375 20.0466 49.8815 19.9115 49.7819 19.8118C49.6823 19.7122 49.5471 19.6562 49.4062 19.6562H1.59375C1.45285 19.6562 1.31773 19.7122 1.2181 19.8118C1.11847 19.9115 1.0625 20.0466 1.0625 20.1875V38.25ZM36.125 33.4688H42.5C42.9227 33.4688 43.3281 33.6367 43.627 33.9355C43.9258 34.2344 44.0938 34.6398 44.0938 35.0625C44.0938 35.4852 43.9258 35.8906 43.627 36.1895C43.3281 36.4883 42.9227 36.6562 42.5 36.6562H36.125C35.7023 36.6562 35.2969 36.4883 34.998 36.1895C34.6992 35.8906 34.5312 35.4852 34.5312 35.0625C34.5312 34.6398 34.6992 34.2344 34.998 33.9355C35.2969 33.6367 35.7023 33.4688 36.125 33.4688ZM9.5625 24.9688H26.5625C26.9852 24.9688 27.3906 25.1367 27.6895 25.4355C27.9883 25.7344 28.1562 26.1398 28.1562 26.5625C28.1562 26.9852 27.9883 27.3906 27.6895 27.6895C27.3906 27.9883 26.9852 28.1562 26.5625 28.1562H9.5625C9.13981 28.1562 8.73443 27.9883 8.43555 27.6895C8.13666 27.3906 7.96875 26.9852 7.96875 26.5625C7.96875 26.1398 8.13666 25.7344 8.43555 25.4355C8.73443 25.1367 9.13981 24.9688 9.5625 24.9688ZM9.5625 33.4688H15.9375C16.3602 33.4688 16.7656 33.6367 17.0645 33.9355C17.3633 34.2344 17.5312 34.6398 17.5312 35.0625C17.5312 35.4852 17.3633 35.8906 17.0645 36.1895C16.7656 36.4883 16.3602 36.6562 15.9375 36.6562H9.5625C9.13981 36.6562 8.73443 36.4883 8.43555 36.1895C8.13666 35.8906 7.96875 35.4852 7.96875 35.0625C7.96875 34.6398 8.13666 34.2344 8.43555 33.9355C8.73443 33.6367 9.13981 33.4688 9.5625 33.4688Z" fill="#09D9B9"/>
<path d="M49.9375 12.75C49.9375 11.6228 49.4897 10.5418 48.6927 9.7448C47.8957 8.94777 46.8147 8.5 45.6875 8.5H5.3125C4.18533 8.5 3.10433 8.94777 2.3073 9.7448C1.51027 10.5418 1.0625 11.6228 1.0625 12.75V15.9375C1.0625 16.0784 1.11847 16.2135 1.2181 16.3132C1.31773 16.4128 1.45285 16.4688 1.59375 16.4688H49.4062C49.5471 16.4688 49.6823 16.4128 49.7819 16.3132C49.8815 16.2135 49.9375 16.0784 49.9375 15.9375V12.75Z" fill="#09D9B9"/>
</svg>
