<svg width="49" height="48" viewBox="0 0 49 48" fill="none" xmlns="http://www.w3.org/2000/svg">
<path d="M21.6738 39C21.6738 39.1326 21.7266 39.2598 21.8205 39.3536C21.9144 39.4473 22.0417 39.5 22.1745 39.5H25.1788C25.8428 39.5 26.4796 39.2366 26.9491 38.7678C27.4186 38.2989 27.6824 37.663 27.6824 37C27.6824 36.337 27.4186 35.7011 26.9491 35.2322C26.4796 34.7634 25.8428 34.5 25.1788 34.5H22.1745C22.0417 34.5 21.9144 34.5527 21.8205 34.6464C21.7266 34.7402 21.6738 34.8674 21.6738 35V39Z" fill="#09D9B9"/>
<path d="M22.1745 26.5C22.0417 26.5 21.9144 26.5527 21.8205 26.6464C21.7266 26.7402 21.6738 26.8674 21.6738 27V31C21.6738 31.1326 21.7266 31.2598 21.8205 31.3536C21.9144 31.4473 22.0417 31.5 22.1745 31.5H25.1788C25.8428 31.5 26.4796 31.2366 26.9491 30.7678C27.4186 30.2989 27.6824 29.663 27.6824 29C27.6824 28.337 27.4186 27.7011 26.9491 27.2322C26.4796 26.7634 25.8428 26.5 25.1788 26.5H22.1745Z" fill="#09D9B9"/>
<path d="M38.1053 18.11C37.992 18.0865 37.8903 18.0248 37.8174 17.9351C37.7444 17.8455 37.7046 17.7335 37.7047 17.618V13.5C37.7047 9.91958 36.2804 6.4858 33.745 3.95406C31.2096 1.42232 27.771 0 24.1854 0C20.5999 0 17.1612 1.42232 14.6258 3.95406C12.0905 6.4858 10.6661 9.91958 10.6661 13.5V17.618C10.6662 17.7335 10.6264 17.8455 10.5535 17.9351C10.4805 18.0248 10.3788 18.0865 10.2655 18.11C9.11478 18.3148 8.07256 18.9165 7.32071 19.8102C6.56886 20.7039 6.15511 21.8328 6.15165 23V43C6.15165 43.6566 6.28116 44.3068 6.5328 44.9134C6.78443 45.52 7.15325 46.0712 7.61821 46.5355C8.08317 46.9998 8.63515 47.3681 9.24265 47.6194C9.85014 47.8707 10.5013 48 11.1588 48H37.196C37.8535 48 38.5047 47.8707 39.1122 47.6194C39.7197 47.3681 40.2716 46.9998 40.7366 46.5355C41.2015 46.0712 41.5704 45.52 41.822 44.9134C42.0736 44.3068 42.2032 43.6566 42.2032 43V23C42.2004 21.8351 41.7889 20.708 41.0402 19.8146C40.2916 18.9213 39.2531 18.3181 38.1053 18.11ZM18.6695 25C18.6695 24.6022 18.8278 24.2206 19.1095 23.9393C19.3912 23.658 19.7733 23.5 20.1717 23.5H21.1731C21.3059 23.5 21.4333 23.4473 21.5272 23.3536C21.6211 23.2598 21.6738 23.1326 21.6738 23C21.6738 22.6022 21.8321 22.2206 22.1138 21.9393C22.3955 21.658 22.7776 21.5 23.176 21.5C23.5744 21.5 23.9564 21.658 24.2381 21.9393C24.5199 22.2206 24.6781 22.6022 24.6781 23C24.6781 23.1326 24.7309 23.2598 24.8248 23.3536C24.9187 23.4473 25.046 23.5 25.1788 23.5C26.6393 23.5011 28.0396 24.0809 29.0723 25.1121C30.105 26.1433 30.6856 27.5416 30.6867 29C30.6858 30.3555 30.1788 31.6619 29.2647 32.664C29.1816 32.7559 29.1357 32.8752 29.1357 32.999C29.1357 33.1228 29.1816 33.2421 29.2647 33.334C29.9794 34.1218 30.4494 35.0999 30.6176 36.1496C30.7858 37.1992 30.6449 38.275 30.212 39.2461C29.7791 40.2172 29.0729 41.0418 28.1793 41.6195C27.2858 42.1972 26.2433 42.5031 25.1788 42.5C25.046 42.5 24.9187 42.5527 24.8248 42.6464C24.7309 42.7402 24.6781 42.8674 24.6781 43C24.6781 43.3978 24.5199 43.7794 24.2381 44.0607C23.9564 44.342 23.5744 44.5 23.176 44.5C22.7776 44.5 22.3955 44.342 22.1138 44.0607C21.8321 43.7794 21.6738 43.3978 21.6738 43C21.6738 42.8674 21.6211 42.7402 21.5272 42.6464C21.4333 42.5527 21.3059 42.5 21.1731 42.5H20.1717C19.7733 42.5 19.3912 42.342 19.1095 42.0607C18.8278 41.7794 18.6695 41.3978 18.6695 41V25ZM15.6652 13.5C15.6652 11.2457 16.5621 9.08365 18.1584 7.48959C19.7547 5.89553 21.9198 5 24.1774 5C26.435 5 28.6001 5.89553 30.1964 7.48959C31.7927 9.08365 32.6896 11.2457 32.6896 13.5V17.5C32.6896 17.6326 32.6368 17.7598 32.5429 17.8536C32.449 17.9473 32.3216 18 32.1888 18H16.166C16.0332 18 15.9058 17.9473 15.8119 17.8536C15.718 17.7598 15.6652 17.6326 15.6652 17.5V13.5Z" fill="#09D9B9"/>
</svg>
