<svg width="51" height="51" viewBox="0 0 51 51" fill="none" xmlns="http://www.w3.org/2000/svg">
<g clip-path="url(#clip0)">
<path d="M31.3438 23.375C31.3438 23.5159 31.3997 23.651 31.4993 23.7507C31.599 23.8503 31.7341 23.9062 31.875 23.9062H35.0625C35.767 23.9062 36.4426 23.6264 36.9408 23.1283C37.4389 22.6301 37.7188 21.9545 37.7188 21.25C37.7188 20.5455 37.4389 19.8699 36.9408 19.3717C36.4426 18.8736 35.767 18.5938 35.0625 18.5938H31.875C31.7341 18.5938 31.599 18.6497 31.4993 18.7493C31.3997 18.849 31.3438 18.9841 31.3438 19.125V23.375Z" fill="#09D9B9"/>
<path d="M37.7188 12.75C37.7176 12.0459 37.4374 11.3709 36.9395 10.873C36.4416 10.3751 35.7666 10.0949 35.0625 10.0938H31.875C31.7341 10.0938 31.599 10.1497 31.4993 10.2493C31.3997 10.349 31.3438 10.4841 31.3438 10.625V14.875C31.3438 15.0159 31.3997 15.151 31.4993 15.2507C31.599 15.3503 31.7341 15.4063 31.875 15.4063H35.0625C35.7666 15.4051 36.4416 15.1249 36.9395 14.627C37.4374 14.1291 37.7176 13.4541 37.7188 12.75Z" fill="#09D9B9"/>
<path d="M34 0C30.6377 0 27.3509 0.997033 24.5553 2.86502C21.7597 4.733 19.5807 7.38804 18.2941 10.4944C17.0074 13.6007 16.6707 17.0189 17.3267 20.3165C17.9826 23.6142 19.6017 26.6433 21.9792 29.0208C24.3567 31.3983 27.3858 33.0174 30.6835 33.6733C33.9811 34.3293 37.3993 33.9926 40.5056 32.706C43.612 31.4193 46.267 29.2403 48.135 26.4447C50.003 23.6491 51 20.3623 51 17C51 12.4913 49.2089 8.1673 46.0208 4.97919C42.8327 1.79107 38.5087 0 34 0V0ZM28.1563 8.5C28.1563 8.07731 28.3242 7.67193 28.6231 7.37305C28.9219 7.07416 29.3273 6.90625 29.75 6.90625H30.8125C30.9534 6.90625 31.0885 6.85028 31.1882 6.75065C31.2878 6.65102 31.3438 6.5159 31.3438 6.375V5.84375C31.3438 5.42106 31.5117 5.01568 31.8106 4.7168C32.1094 4.41791 32.5148 4.25 32.9375 4.25C33.3602 4.25 33.7656 4.41791 34.0645 4.7168C34.3633 5.01568 34.5313 5.42106 34.5313 5.84375V6.375C34.5313 6.5159 34.5872 6.65102 34.6869 6.75065C34.7865 6.85028 34.9216 6.90625 35.0625 6.90625C36.1919 6.90298 37.2979 7.22801 38.246 7.8418C39.1941 8.45559 39.9433 9.33168 40.4026 10.3635C40.8619 11.3953 41.0114 12.5384 40.833 13.6536C40.6545 14.7688 40.1558 15.8081 39.3975 16.6451C39.3094 16.7427 39.2606 16.8696 39.2606 17.0011C39.2606 17.1326 39.3094 17.2594 39.3975 17.357C40.3674 18.4217 40.9053 19.8098 40.9063 21.25C40.9051 22.7995 40.2891 24.2852 39.1934 25.3809C38.0977 26.4766 36.612 27.0926 35.0625 27.0938C34.9216 27.0938 34.7865 27.1497 34.6869 27.2493C34.5872 27.349 34.5313 27.4841 34.5313 27.625V28.1562C34.5313 28.5789 34.3633 28.9843 34.0645 29.2832C33.7656 29.5821 33.3602 29.75 32.9375 29.75C32.5148 29.75 32.1094 29.5821 31.8106 29.2832C31.5117 28.9843 31.3438 28.5789 31.3438 28.1562V27.625C31.3438 27.4841 31.2878 27.349 31.1882 27.2493C31.0885 27.1497 30.9534 27.0938 30.8125 27.0938H29.75C29.3273 27.0938 28.9219 26.9258 28.6231 26.627C28.3242 26.3281 28.1563 25.9227 28.1563 25.5V8.5Z" fill="#09D9B9"/>
<path d="M2.125 31.3438C1.56141 31.3438 1.02091 31.5676 0.622398 31.9661C0.223883 32.3647 0 32.9052 0 33.4688L0 48.875C0 49.4386 0.223883 49.9791 0.622398 50.3776C1.02091 50.7761 1.56141 51 2.125 51C2.68859 51 3.22909 50.7761 3.6276 50.3776C4.02612 49.9791 4.25 49.4386 4.25 48.875V33.4688C4.25 32.9052 4.02612 32.3647 3.6276 31.9661C3.22909 31.5676 2.68859 31.3438 2.125 31.3438Z" fill="#09D9B9"/>
<path d="M32.9375 41.4375H13.5469C13.1946 41.4375 12.8568 41.2976 12.6077 41.0485C12.3587 40.7994 12.2188 40.4616 12.2188 40.1094C12.2188 39.7571 12.3587 39.4193 12.6077 39.1703C12.8568 38.9212 13.1946 38.7813 13.5469 38.7813H18.9125C19.2641 38.7814 19.6102 38.6944 19.9198 38.5279C20.2294 38.3614 20.4929 38.1207 20.6867 37.8273C20.8804 37.534 20.9983 37.1972 21.0299 36.847C21.0615 36.4969 21.0057 36.1444 20.8675 35.8211C20.5021 34.9651 19.8932 34.2354 19.1164 33.7227C18.3396 33.21 17.4292 32.9369 16.4985 32.9375H7.4375C7.15571 32.9375 6.88546 33.0494 6.6862 33.2487C6.48694 33.448 6.375 33.7182 6.375 34V47.8125C6.375 48.0943 6.48694 48.3645 6.6862 48.5638C6.88546 48.7631 7.15571 48.875 7.4375 48.875H30.311C31.5708 48.8739 32.7787 48.3729 33.6696 47.4821C34.5604 46.5912 35.0614 45.3833 35.0625 44.1235V43.5625C35.0625 42.9989 34.8386 42.4584 34.4401 42.0599C34.0416 41.6614 33.5011 41.4375 32.9375 41.4375Z" fill="#09D9B9"/>
</g>
<defs>
<clipPath id="clip0">
<rect width="51" height="51" fill="white"/>
</clipPath>
</defs>
</svg>
