<svg width="40" height="40" viewBox="0 0 40 40" fill="none" xmlns="http://www.w3.org/2000/svg">
<g clip-path="url(#clip0)">
<path d="M20 0C16.0444 0 12.1776 1.17298 8.8886 3.37061C5.59962 5.56824 3.03617 8.69181 1.52242 12.3463C0.00866572 16.0009 -0.387401 20.0222 0.384303 23.9018C1.15601 27.7814 3.06082 31.3451 5.85787 34.1421C8.65492 36.9392 12.2186 38.844 16.0982 39.6157C19.9778 40.3874 23.9992 39.9913 27.6537 38.4776C31.3082 36.9638 34.4318 34.4004 36.6294 31.1114C38.827 27.8224 40 23.9556 40 20C39.9943 14.6974 37.8853 9.61368 34.1358 5.8642C30.3863 2.11471 25.3026 0.00573514 20 0V0ZM32.2117 31.3333C28.4415 29.3658 24.2518 28.3384 19.9992 28.3384C15.7465 28.3384 11.5568 29.3658 7.78667 31.3333C5.5792 28.9564 4.11336 25.9868 3.56892 22.7889C3.02448 19.591 3.4251 16.3038 4.72166 13.3302C6.01822 10.3567 8.15434 7.82614 10.8681 6.04892C13.5819 4.27169 16.7553 3.32503 19.9992 3.32503C23.2431 3.32503 26.4165 4.27169 29.1303 6.04892C31.844 7.82614 33.9801 10.3567 35.2767 13.3302C36.5732 16.3038 36.9739 19.591 36.4294 22.7889C35.885 25.9868 34.4192 28.9564 32.2117 31.3333Z" fill="#09D9B9"/>
<path d="M9.16666 18.75H6.66666C6.33514 18.75 6.01719 18.8817 5.78277 19.1161C5.54835 19.3505 5.41666 19.6685 5.41666 20C5.41666 20.3315 5.54835 20.6495 5.78277 20.8839C6.01719 21.1183 6.33514 21.25 6.66666 21.25H9.16666C9.49818 21.25 9.81612 21.1183 10.0505 20.8839C10.285 20.6495 10.4167 20.3315 10.4167 20C10.4167 19.6685 10.285 19.3505 10.0505 19.1161C9.81612 18.8817 9.49818 18.75 9.16666 18.75Z" fill="#09D9B9"/>
<path d="M11.6167 9.85C11.5022 9.72718 11.3642 9.62868 11.2109 9.56036C11.0576 9.49204 10.892 9.4553 10.7242 9.45234C10.5564 9.44938 10.3896 9.48026 10.234 9.54312C10.0784 9.60599 9.93696 9.69957 9.81826 9.81826C9.69957 9.93696 9.60599 10.0784 9.54312 10.234C9.48026 10.3896 9.44938 10.5564 9.45234 10.7242C9.4553 10.892 9.49204 11.0576 9.56036 11.2109C9.62868 11.3642 9.72718 11.5022 9.84999 11.6167L11.6167 13.3833C11.7311 13.5061 11.8691 13.6046 12.0224 13.673C12.1758 13.7413 12.3413 13.778 12.5091 13.781C12.677 13.7839 12.8437 13.7531 12.9993 13.6902C13.155 13.6273 13.2964 13.5338 13.4151 13.4151C13.5338 13.2964 13.6273 13.155 13.6902 12.9993C13.7531 12.8437 13.7839 12.677 13.781 12.5091C13.778 12.3413 13.7413 12.1758 13.673 12.0224C13.6046 11.8691 13.5061 11.7311 13.3833 11.6167L11.6167 9.85Z" fill="#09D9B9"/>
<path d="M20 10.4167C20.3315 10.4167 20.6495 10.285 20.8839 10.0506C21.1183 9.81615 21.25 9.49821 21.25 9.16669V6.66669C21.25 6.33517 21.1183 6.01722 20.8839 5.7828C20.6495 5.54838 20.3315 5.41669 20 5.41669C19.6685 5.41669 19.3505 5.54838 19.1161 5.7828C18.8817 6.01722 18.75 6.33517 18.75 6.66669V9.16669C18.75 9.49821 18.8817 9.81615 19.1161 10.0506C19.3505 10.285 19.6685 10.4167 20 10.4167Z" fill="#09D9B9"/>
<path d="M33.3333 18.75H30.8333C30.5018 18.75 30.1839 18.8817 29.9494 19.1161C29.715 19.3505 29.5833 19.6685 29.5833 20C29.5833 20.3315 29.715 20.6495 29.9494 20.8839C30.1839 21.1183 30.5018 21.25 30.8333 21.25H33.3333C33.6648 21.25 33.9828 21.1183 34.2172 20.8839C34.4516 20.6495 34.5833 20.3315 34.5833 20C34.5833 19.6685 34.4516 19.3505 34.2172 19.1161C33.9828 18.8817 33.6648 18.75 33.3333 18.75Z" fill="#09D9B9"/>
<path d="M30.59 11.0766C30.4585 10.9452 30.2869 10.8615 30.1024 10.8389C29.9178 10.8162 29.731 10.8559 29.5717 10.9516C28.4233 11.6416 18.3167 17.7283 17.0533 18.9916C16.3095 19.738 15.8918 20.7487 15.8918 21.8025C15.8918 22.8562 16.3095 23.867 17.0533 24.6133C17.8067 25.3437 18.8149 25.7521 19.8642 25.7521C20.9135 25.7521 21.9216 25.3437 22.675 24.6133C23.9383 23.35 30.025 13.2433 30.715 12.0966C30.8112 11.9371 30.8511 11.75 30.8284 11.5651C30.8058 11.3802 30.7218 11.2082 30.59 11.0766Z" fill="#09D9B9"/>
</g>
<defs>
<clipPath id="clip0">
<rect width="40" height="40" fill="white"/>
</clipPath>
</defs>
</svg>
