<svg width="56" height="56" viewBox="0 0 56 56" fill="none" xmlns="http://www.w3.org/2000/svg">
<path d="M28 6.09937C24.9801 6.09923 22.0153 6.90749 19.4132 8.44022C16.8112 9.97296 14.667 12.1743 13.2031 14.8156C11.7392 17.457 11.009 20.4421 11.0884 23.4609C11.1678 26.4797 12.0539 29.4223 13.6547 31.983C13.7724 32.1861 13.9298 32.3635 14.1175 32.5045C14.3052 32.6455 14.5194 32.7473 14.7472 32.8038C14.975 32.8603 15.2119 32.8705 15.4438 32.8336C15.6756 32.7967 15.8977 32.7135 16.0967 32.589C16.2957 32.4645 16.4677 32.3012 16.6023 32.1089C16.7369 31.9166 16.8315 31.6992 16.8803 31.4695C16.9292 31.2399 16.9314 31.0028 16.8867 30.7724C16.842 30.5419 16.7515 30.3228 16.6204 30.128C15.3494 28.0958 14.6459 25.7602 14.5832 23.364C14.5204 20.9679 15.1006 18.5986 16.2635 16.5026C17.4263 14.4066 19.1294 12.6604 21.1956 11.4453C23.2618 10.2303 25.6157 9.59096 28.0127 9.59366C30.4097 9.59637 32.7622 10.2411 34.8256 11.4607C36.8891 12.6804 38.5882 14.4305 39.7463 16.5291C40.9045 18.6278 41.4793 20.9983 41.4111 23.3943C41.343 25.7903 40.6343 28.1243 39.3587 30.1537C39.1112 30.5467 39.0299 31.0219 39.1327 31.4748C39.2355 31.9277 39.5141 32.3212 39.907 32.5687C40.3 32.8162 40.7752 32.8975 41.2281 32.7947C41.681 32.6919 42.0745 32.4133 42.322 32.0204C43.9314 29.4606 44.8254 26.5163 44.9108 23.4939C44.9962 20.4715 44.27 17.4814 42.8077 14.8349C41.3454 12.1884 39.2005 9.98211 36.5963 8.44579C33.9921 6.90947 31.0237 6.09921 28 6.09937Z" fill="#09D9B9"/>
<path d="M38.3063 35.672L29.575 33.0657C29.4549 33.0299 29.3496 32.9563 29.2747 32.8558C29.1999 32.7553 29.1595 32.6333 29.1597 32.508V21.8493C29.1597 21.2305 28.9138 20.637 28.4763 20.1994C28.0387 19.7618 27.4452 19.516 26.8263 19.516C26.2075 19.516 25.614 19.7618 25.1764 20.1994C24.7388 20.637 24.493 21.2305 24.493 21.8493V38.332C24.4932 38.4565 24.4535 38.5779 24.3797 38.6782C24.306 38.7786 24.202 38.8527 24.0831 38.8898C23.9642 38.9268 23.8365 38.9248 23.7188 38.884C23.6011 38.8433 23.4996 38.766 23.429 38.6633C19.9547 33.6747 14.434 35.2823 16.9867 39.186L23.7813 49.3757C23.8878 49.5356 24.0321 49.6668 24.2014 49.7576C24.3707 49.8483 24.5599 49.8959 24.752 49.896H37.436C37.7087 49.8962 37.9729 49.8008 38.1826 49.6265C38.3924 49.4521 38.5344 49.2098 38.584 48.9417C39.0927 46.1767 40.39 39.2187 40.39 39.2187C40.5627 38.4731 40.443 37.6897 40.0553 37.0299C39.6676 36.37 39.0417 35.884 38.3063 35.672Z" fill="#09D9B9"/>
</svg>
