<svg width="227" height="365" viewBox="0 0 227 365" fill="none" xmlns="http://www.w3.org/2000/svg">
<g filter="url(#filter0_di)">
<g clip-path="url(#clip0)">
<path d="M20 362C8.95431 362 0 353.046 0 342L0 20C0 8.95431 8.95431 0 20 0L207 0C218.046 0 227 8.95431 227 20L227 342C227 353.046 218.046 362 207 362L20 362Z" fill="#434867"/>
<path d="M20 362C8.95431 362 0 353.046 0 342L0 20C0 8.95431 8.95431 0 20 0L207 0C218.046 0 227 8.95431 227 20L227 342C227 353.046 218.046 362 207 362L20 362Z" fill="url(#paint0_linear)" fill-opacity="0.2"/>
<path fill-rule="evenodd" clip-rule="evenodd" d="M134.269 310.367C134.572 305.232 131.855 300.587 127.622 297.892L126.762 299.241C130.565 301.662 132.937 305.783 132.672 310.273C132.436 314.267 130.161 317.726 126.772 319.84L127.619 321.197C131.397 318.84 134 314.936 134.269 310.367ZM128.51 309.904C128.693 306.815 126.98 303.958 124.158 302.23L124.994 300.866C128.228 302.847 130.331 306.22 130.108 309.999C129.91 313.356 127.917 316.224 125.03 317.92L124.219 316.541C126.711 315.077 128.348 312.658 128.51 309.904ZM122.734 303.874C124.746 305.144 126.081 307.339 125.935 309.82C125.805 312.031 124.557 313.905 122.701 314.995L121.89 313.617C123.321 312.776 124.241 311.364 124.338 309.725C124.445 307.906 123.471 306.231 121.88 305.227L122.734 303.874Z" fill="white"/>
<path fill-rule="evenodd" clip-rule="evenodd" d="M77.975 323.861L77.975 291.679C77.975 289.8 79.5961 288.277 81.5959 288.277H110.563C112.562 288.277 114.183 289.8 114.183 291.679L114.183 323.861C114.183 325.739 112.562 327.262 110.563 327.262H81.5959C79.5961 327.262 77.975 325.739 77.975 323.861Z" fill="url(#paint1_linear)"/>
<path fill-rule="evenodd" clip-rule="evenodd" d="M77.975 317.698V316.912H86.503V316.023C86.503 314.36 87.9422 313.011 89.7177 313.01L89.7177 302.788C88.33 302.732 87.1702 301.852 86.7819 300.657V300.666H77.975V299.88H86.6448C86.6436 299.846 86.6429 299.812 86.6429 299.778V288.277H87.4818V299.778C87.4818 301.008 88.5458 302.005 89.8584 302.005H94.4711V288.482H95.3099V302.005H102.441C103.753 302.005 104.817 301.008 104.817 299.778V288.277H105.656V299.618H114.183V300.404H105.587C105.279 301.768 103.987 302.791 102.441 302.791H100.343L100.343 313.01H102.301C104.077 313.01 105.516 314.359 105.516 316.023V317.174H114.183V317.96H105.516V327.262H104.678V316.023C104.678 314.793 103.613 313.796 102.301 313.796H95.3099V327.262H94.4711V313.796H89.7185C88.4059 313.796 87.3419 314.793 87.3419 316.023V327.262H86.503V317.698H77.975ZM99.504 313.01H90.5565L90.5565 302.791H99.504L99.504 313.01Z" fill="#826B1F" fill-opacity="0.8"/>
<path d="M84.3611 74.2822L80.7448 69.0525L79.6599 70.3148L79.6599 74.2822L76.4053 74.2822L76.4053 55.9784L79.6599 55.9784L79.6599 66.2574L79.8408 66.2574L83.8187 61.5687L87.6158 61.5687L82.9146 66.9787L87.887 74.2822L84.3611 74.2822Z" fill="white"/>
<path d="M93.4926 74.4623C92.2269 74.4623 91.1421 74.1918 90.238 73.6508C89.3339 73.1098 88.6106 72.3884 88.0682 71.3966C87.5258 70.4048 87.3449 69.3228 87.3449 67.9703C87.3449 66.708 87.6162 65.5358 88.0682 64.544C88.5202 63.5521 89.2435 62.7406 90.1476 62.1996C91.0516 61.6586 92.1365 61.298 93.4022 61.298C94.4871 61.298 95.4816 61.5685 96.2953 62.0193C97.1994 62.4701 97.8322 63.1915 98.3746 64.0931C98.9171 64.9948 99.0979 66.167 99.0979 67.5195L99.0979 68.872L90.5092 68.872C90.5996 69.7736 90.9612 70.5851 91.4133 71.1261C91.9557 71.6671 92.5886 71.9376 93.5831 71.9376C94.3063 71.9376 94.9392 71.7573 95.3008 71.3966C95.6624 71.0359 95.9336 70.6753 96.1145 70.1343L99.0075 70.9458C98.8267 71.4868 98.5555 72.1179 98.1034 72.6589C97.6514 73.1999 97.1089 73.6508 96.2953 74.0114C95.4816 74.2819 94.5775 74.4623 93.4926 74.4623ZM93.3118 64.003C92.5886 64.003 91.9557 64.2735 91.5037 64.7243C91.0516 65.1751 90.69 65.8063 90.5092 66.708L96.0241 66.708C96.0241 65.9866 95.7528 65.3555 95.3008 64.8145C94.7584 64.2735 94.1255 64.003 93.3118 64.003Z" fill="white"/>
<path d="M103.527 74.8227L103.798 74.1916L99.1876 61.5683L102.533 61.5683L105.335 69.9537L105.516 69.9537L108.319 61.5683L111.664 61.5683L106.239 76.1752C106.059 76.626 105.787 77.167 105.426 77.6179C105.064 78.0687 104.612 78.5195 104.07 78.79C103.527 79.0605 102.804 79.2409 101.99 79.2409C101.629 79.2409 101.357 79.2409 100.996 79.1507C100.634 79.0605 100.453 78.9704 100.182 78.8802L100.905 76.3555C101.719 76.5359 102.261 76.5359 102.623 76.2654C102.894 76.0851 103.256 75.544 103.527 74.8227Z" fill="white"/>
<path d="M122.965 65.6258L119.981 66.0766C119.801 65.4454 119.529 64.9946 119.168 64.6339C118.806 64.2733 118.264 64.0929 117.54 64.0929C116.546 64.0929 115.913 64.4536 115.371 65.1749C114.919 65.8963 114.647 66.7979 114.647 67.9701C114.647 69.1422 114.919 70.1341 115.371 70.8554C115.823 71.5767 116.546 71.9374 117.54 71.9374C118.173 71.9374 118.716 71.7571 119.077 71.3964C119.439 71.0357 119.801 70.5849 119.891 70.0439L122.874 70.4947C122.603 71.6669 121.97 72.6587 121.066 73.4702C120.072 74.1916 118.897 74.6424 117.45 74.6424C116.184 74.6424 115.19 74.3719 114.286 73.8309C113.382 73.2899 112.749 72.4784 112.206 71.4866C111.754 70.4947 111.483 69.3226 111.483 68.0602C111.483 66.7979 111.754 65.6258 112.206 64.6339C112.658 63.6421 113.382 62.9208 114.286 62.3798C115.19 61.8388 116.184 61.5683 117.45 61.5683C118.897 61.5683 120.072 61.9289 121.066 62.7404C122.151 63.2814 122.784 64.3634 122.965 65.6258Z" fill="white"/>
<path d="M131.373 72.8391L131.192 72.8391C131.011 73.1997 130.65 73.6506 130.107 74.0112C129.565 74.3719 128.842 74.5522 127.938 74.5522C127.214 74.5522 126.491 74.3719 125.858 74.1014C125.225 73.8309 124.773 73.3801 124.321 72.8391C123.96 72.2981 123.779 71.5767 123.779 70.7652C123.779 69.5029 124.231 68.6012 125.135 67.9701C126.039 67.3389 127.305 66.9782 128.932 66.7979C129.294 66.7979 129.655 66.7078 130.017 66.7078C130.379 66.7078 130.65 66.6176 130.921 66.5274C131.102 66.4373 131.283 66.2569 131.283 66.0766L131.283 65.8963C131.283 65.3553 131.102 64.9044 130.74 64.5438C130.379 64.2733 129.926 64.0929 129.384 64.0929C128.751 64.0929 128.299 64.2733 127.847 64.5438C127.395 64.8143 127.214 65.1749 127.033 65.6258L124.05 65.1749C124.321 64.0028 124.954 63.1011 125.949 62.4699C126.943 61.8388 128.118 61.5683 129.474 61.5683C130.288 61.5683 131.102 61.7486 131.915 62.0191C132.639 62.2896 133.272 62.7404 133.814 63.3716C134.266 64.0028 134.537 64.9044 134.537 65.8963L134.537 74.4621L131.373 74.4621L131.373 72.8391ZM131.192 70.0439L131.192 68.3307C131.102 68.4209 130.921 68.5111 130.74 68.6012C130.469 68.6914 130.198 68.6914 129.926 68.7816C129.655 68.8717 129.384 68.8717 129.203 68.8717C128.48 68.9619 127.847 69.1422 127.485 69.4127C127.124 69.6832 126.943 70.1341 126.943 70.6751C126.943 71.1259 127.124 71.4866 127.395 71.7571C127.757 72.0276 128.118 72.1177 128.661 72.1177C129.384 72.1177 129.926 71.9374 130.469 71.4866C131.011 71.0357 131.192 70.5849 131.192 70.0439Z" fill="white"/>
<path d="M144.302 61.8391L143.307 64.6342C143.217 64.5441 143.036 64.5441 142.855 64.4539C142.674 64.3637 142.403 64.3637 142.132 64.3637C141.589 64.3637 141.137 64.4539 140.776 64.7244C140.414 64.9949 140.052 65.3556 139.872 65.7162C139.691 66.1671 139.51 66.6179 139.51 67.0687L139.51 74.282L136.255 74.282L136.255 61.5686L139.42 61.5686L139.42 63.3719L139.6 63.3719C139.781 62.7407 140.143 62.1997 140.685 61.9292C141.228 61.5686 141.861 61.3882 142.493 61.3882C142.855 61.3882 143.126 61.3882 143.488 61.4784C143.85 61.5686 144.121 61.6587 144.302 61.8391Z" fill="white"/>
<path d="M155.421 74.2821L152.257 74.2821L152.257 72.7493L152.076 72.7493C151.895 73.2001 151.533 73.5608 150.991 73.9215C150.448 74.2821 149.816 74.4625 148.912 74.4625C147.917 74.4625 147.103 74.192 146.38 73.7411C145.657 73.2001 145.024 72.4788 144.572 71.487C144.12 70.4951 143.939 69.323 143.939 67.8803C143.939 66.4377 144.21 65.2655 144.662 64.2737C145.114 63.2818 145.747 62.5605 146.471 62.1097C147.284 61.6588 148.098 61.3883 149.002 61.3883C149.816 61.3883 150.539 61.5687 151.081 61.9293C151.624 62.29 151.985 62.6507 152.166 63.1015L152.257 63.1015L152.257 57.3309L155.421 57.3309L155.421 74.2821ZM146.923 67.8803C146.923 69.0525 147.194 70.0443 147.646 70.7656C148.098 71.487 148.821 71.8476 149.816 71.8476C150.448 71.8476 150.991 71.6673 151.443 71.3066C151.805 70.946 152.166 70.4951 152.347 69.864C152.528 69.2328 152.618 68.6017 152.618 67.8803C152.618 66.7983 152.437 65.8065 151.985 65.0852C151.533 64.3638 150.901 64.0032 149.906 64.0032C148.912 64.0032 148.279 64.3638 147.736 65.0852C147.194 65.8065 146.923 66.7082 146.923 67.8803Z" fill="white"/>
<path d="M77.9423 58.9538C73.7835 58.9538 70.4385 55.5275 70.4385 51.3798C70.4385 47.2322 73.7836 43.896 77.9423 43.896C82.101 43.896 85.4461 47.2322 85.4461 51.3798C85.5365 55.5275 82.101 58.9538 77.9423 58.9538ZM77.9423 46.8715C75.4109 46.8715 73.4219 48.9453 73.4219 51.3798C73.4219 53.9045 75.5013 55.8881 77.9423 55.8881C80.4737 55.8881 82.4627 53.8143 82.4627 51.3798C82.5531 48.9453 80.4737 46.8715 77.9423 46.8715Z" fill="white"/>
</g>
</g>
<defs>
<filter id="filter0_di" x="0" y="0" width="227" height="365" filterUnits="userSpaceOnUse" color-interpolation-filters="sRGB">
<feFlood flood-opacity="0" result="BackgroundImageFix"/>
<feColorMatrix in="SourceAlpha" type="matrix" values="0 0 0 0 0 0 0 0 0 0 0 0 0 0 0 0 0 0 127 0"/>
<feOffset dy="3"/>
<feColorMatrix type="matrix" values="0 0 0 0 0.262745 0 0 0 0 0.282353 0 0 0 0 0.403922 0 0 0 1 0"/>
<feBlend mode="normal" in2="BackgroundImageFix" result="effect1_dropShadow"/>
<feBlend mode="normal" in="SourceGraphic" in2="effect1_dropShadow" result="shape"/>
<feColorMatrix in="SourceAlpha" type="matrix" values="0 0 0 0 0 0 0 0 0 0 0 0 0 0 0 0 0 0 127 0" result="hardAlpha"/>
<feOffset dy="2"/>
<feComposite in2="hardAlpha" operator="arithmetic" k2="-1" k3="1"/>
<feColorMatrix type="matrix" values="0 0 0 0 0.4 0 0 0 0 0.4 0 0 0 0 0.4 0 0 0 1 0"/>
<feBlend mode="normal" in2="shape" result="effect2_innerShadow"/>
</filter>
<linearGradient id="paint0_linear" x1="39.2242" y1="56.8533" x2="231.729" y2="372.845" gradientUnits="userSpaceOnUse">
<stop stop-color="white"/>
<stop offset="0.665917" stop-color="white" stop-opacity="0"/>
</linearGradient>
<linearGradient id="paint1_linear" x1="88.4198" y1="317.516" x2="116.192" y2="290.329" gradientUnits="userSpaceOnUse">
<stop stop-color="#F1D373"/>
<stop offset="1" stop-color="#D3B550"/>
</linearGradient>
<clipPath id="clip0">
<path d="M20 362C8.95431 362 0 353.046 0 342L0 20C0 8.95431 8.95431 0 20 0L207 0C218.046 0 227 8.95431 227 20L227 342C227 353.046 218.046 362 207 362L20 362Z" fill="white"/>
</clipPath>
</defs>
</svg>
