<svg width="229" height="364" viewBox="0 0 229 364" fill="none" xmlns="http://www.w3.org/2000/svg">
<g filter="url(#filter0_di)">
<g clip-path="url(#clip0)">
<path d="M21.9788 362.208C10.9331 362.208 1.97882 353.254 1.97882 342.208L1.97882 20.2085C1.97882 9.1628 10.9331 0.208496 21.9788 0.208496H208.979C220.025 0.208496 228.979 9.1628 228.979 20.2085L228.979 342.208C228.979 353.254 220.025 362.208 208.979 362.208H21.9788Z" fill="#F5F6FA"/>
<path d="M21.9788 362.208C10.9331 362.208 1.97882 353.254 1.97882 342.208L1.97882 20.2085C1.97882 9.1628 10.9331 0.208496 21.9788 0.208496H208.979C220.025 0.208496 228.979 9.1628 228.979 20.2085L228.979 342.208C228.979 353.254 220.025 362.208 208.979 362.208H21.9788Z" fill="url(#paint0_linear)"/>
<path fill-rule="evenodd" clip-rule="evenodd" d="M136.248 310.576C136.551 305.44 133.834 300.795 129.6 298.101L128.741 299.45C132.544 301.87 134.915 305.992 134.65 310.481C134.415 314.475 132.14 317.935 128.751 320.048L129.598 321.405C133.376 319.049 135.978 315.144 136.248 310.576ZM130.489 310.113C130.671 307.024 128.959 304.167 126.137 302.439L126.972 301.075C130.207 303.055 132.309 306.429 132.087 310.207C131.888 313.565 129.896 316.433 127.009 318.129L126.198 316.75C128.69 315.286 130.327 312.867 130.489 310.113ZM124.713 304.083C126.725 305.352 128.06 307.547 127.914 310.028C127.783 312.239 126.535 314.113 124.68 315.204L123.869 313.825C125.3 312.984 126.22 311.573 126.316 309.934C126.424 308.115 125.449 306.439 123.859 305.435L124.713 304.083Z" fill="#292929"/>
<path fill-rule="evenodd" clip-rule="evenodd" d="M79.9539 324.069V291.887C79.9539 290.009 81.575 288.486 83.5747 288.486H112.541C114.541 288.486 116.162 290.009 116.162 291.887V324.069C116.162 325.948 114.541 327.47 112.541 327.47H83.5747C81.575 327.47 79.9539 325.948 79.9539 324.069Z" fill="url(#paint1_linear)"/>
<path fill-rule="evenodd" clip-rule="evenodd" d="M79.9539 317.907V317.12H88.4819V316.232C88.4819 314.568 89.9211 313.219 91.6966 313.219V302.997C90.3088 302.941 89.149 302.061 88.7607 300.865V300.875H79.9539V300.089H88.6236C88.6224 300.055 88.6218 300.021 88.6218 299.986V288.486H89.4606V299.986C89.4606 301.216 90.5247 302.214 91.8373 302.214H96.4499V288.69H97.2888V302.214H104.42C105.732 302.214 106.796 301.216 106.796 299.986V288.486H107.635V299.827H116.162V300.613H107.566C107.258 301.976 105.966 303 104.42 303H102.322V313.219H104.28C106.056 313.219 107.495 314.568 107.495 316.232V317.382H116.162V318.169H107.495V327.47H106.656V316.232C106.656 315.002 105.592 314.005 104.28 314.005H97.2887V327.47H96.4499V314.005H91.6974C90.3848 314.005 89.3207 315.002 89.3207 316.232V327.47H88.4819V317.907H79.9539ZM101.483 313.219H92.5354V303H101.483V313.219Z" fill="#826B1F" fill-opacity="0.8"/>
<path d="M86.34 74.4907L82.7237 69.261L81.6388 70.5233L81.6388 74.4907L78.3841 74.4907L78.3841 56.1869L81.6388 56.1869L81.6388 66.4658L81.8196 66.4658L85.7975 61.7772L89.5946 61.7772L84.8935 67.1872L89.8659 74.4907L86.34 74.4907Z" fill="#09D6B6"/>
<path d="M95.4715 74.6708C94.2058 74.6708 93.1209 74.4003 92.2168 73.8593C91.3128 73.3183 90.5895 72.5969 90.0471 71.6051C89.5046 70.6133 89.3238 69.5313 89.3238 68.1788C89.3238 66.9165 89.595 65.7443 90.0471 64.7525C90.4991 63.7606 91.2224 62.9491 92.1264 62.4081C93.0305 61.8671 94.1154 61.5065 95.3811 61.5065C96.466 61.5065 97.4605 61.777 98.2741 62.2278C99.1782 62.6786 99.8111 63.4 100.353 64.3016C100.896 65.2033 101.077 66.3755 101.077 67.728L101.077 69.0804L92.4881 69.0804C92.5785 69.9821 92.9401 70.7936 93.3921 71.3346C93.9346 71.8756 94.5674 72.1461 95.5619 72.1461C96.2852 72.1461 96.918 71.9658 97.2796 71.6051C97.6413 71.2444 97.9125 70.8838 98.0933 70.3428L100.986 71.1543C100.806 71.6953 100.534 72.3264 100.082 72.8674C99.6302 73.4084 99.0878 73.8593 98.2741 74.2199C97.4605 74.4904 96.5564 74.6708 95.4715 74.6708ZM95.2907 64.2115C94.5674 64.2115 93.9346 64.482 93.4825 64.9328C93.0305 65.3836 92.6689 66.0148 92.4881 66.9165L98.0029 66.9165C98.0029 66.1951 97.7317 65.564 97.2796 65.023C96.7372 64.482 96.1044 64.2115 95.2907 64.2115Z" fill="#09D6B6"/>
<path d="M105.506 75.0312L105.777 74.4001L101.166 61.7768L104.511 61.7768L107.314 70.1622L107.495 70.1622L110.298 61.7768L113.643 61.7768L108.218 76.3837C108.037 76.8345 107.766 77.3755 107.405 77.8264C107.043 78.2772 106.591 78.728 106.048 78.9985C105.506 79.269 104.783 79.4494 103.969 79.4494C103.607 79.4494 103.336 79.4494 102.975 79.3592C102.613 79.269 102.432 79.1789 102.161 79.0887L102.884 76.564C103.698 76.7444 104.24 76.7444 104.602 76.4739C104.873 76.2935 105.235 75.7525 105.506 75.0312Z" fill="#09D6B6"/>
<path d="M124.944 65.8343L121.96 66.2851C121.779 65.6539 121.508 65.2031 121.147 64.8424C120.785 64.4818 120.243 64.3014 119.519 64.3014C118.525 64.3014 117.892 64.6621 117.35 65.3834C116.897 66.1048 116.626 67.0064 116.626 68.1786C116.626 69.3507 116.897 70.3426 117.35 71.0639C117.802 71.7852 118.525 72.1459 119.519 72.1459C120.152 72.1459 120.695 71.9656 121.056 71.6049C121.418 71.2442 121.779 70.7934 121.87 70.2524L124.853 70.7032C124.582 71.8754 123.949 72.8672 123.045 73.6787C122.051 74.4001 120.875 74.8509 119.429 74.8509C118.163 74.8509 117.169 74.5804 116.265 74.0394C115.361 73.4984 114.728 72.6869 114.185 71.6951C113.733 70.7032 113.462 69.5311 113.462 68.2687C113.462 67.0064 113.733 65.8343 114.185 64.8424C114.637 63.8506 115.361 63.1293 116.265 62.5883C117.169 62.0473 118.163 61.7768 119.429 61.7768C120.875 61.7768 122.051 62.1374 123.045 62.9489C124.13 63.4899 124.763 64.5719 124.944 65.8343Z" fill="#09D6B6"/>
<path d="M133.352 73.0476L133.171 73.0476C132.99 73.4082 132.629 73.8591 132.086 74.2197C131.544 74.5804 130.82 74.7607 129.916 74.7607C129.193 74.7607 128.47 74.5804 127.837 74.3099C127.204 74.0394 126.752 73.5886 126.3 73.0476C125.938 72.5066 125.758 71.7852 125.758 70.9737C125.758 69.7114 126.21 68.8097 127.114 68.1786C128.018 67.5474 129.284 67.1867 130.911 67.0064C131.272 67.0064 131.634 66.9162 131.996 66.9162C132.357 66.9162 132.629 66.8261 132.9 66.7359C133.081 66.6457 133.261 66.4654 133.261 66.2851L133.261 66.1047C133.261 65.5638 133.081 65.1129 132.719 64.7523C132.357 64.4818 131.905 64.3014 131.363 64.3014C130.73 64.3014 130.278 64.4818 129.826 64.7523C129.374 65.0228 129.193 65.3834 129.012 65.8343L126.029 65.3834C126.3 64.2113 126.933 63.3096 127.927 62.6784C128.922 62.0473 130.097 61.7768 131.453 61.7768C132.267 61.7768 133.081 61.9571 133.894 62.2276C134.618 62.4981 135.25 62.9489 135.793 63.5801C136.245 64.2113 136.516 65.1129 136.516 66.1047L136.516 74.6706L133.352 74.6706L133.352 73.0476ZM133.171 70.2524L133.171 68.5392C133.081 68.6294 132.9 68.7196 132.719 68.8097C132.448 68.8999 132.177 68.8999 131.905 68.9901C131.634 69.0802 131.363 69.0802 131.182 69.0802C130.459 69.1704 129.826 69.3507 129.464 69.6212C129.103 69.8917 128.922 70.3426 128.922 70.8836C128.922 71.3344 129.103 71.6951 129.374 71.9656C129.736 72.2361 130.097 72.3262 130.64 72.3262C131.363 72.3262 131.905 72.1459 132.448 71.6951C132.99 71.2442 133.171 70.7934 133.171 70.2524Z" fill="#09D6B6"/>
<path d="M146.28 62.0476L145.286 64.8427C145.196 64.7526 145.015 64.7526 144.834 64.6624C144.653 64.5722 144.382 64.5722 144.111 64.5722C143.568 64.5722 143.116 64.6624 142.755 64.9329C142.393 65.2034 142.031 65.5641 141.851 65.9247C141.67 66.3756 141.489 66.8264 141.489 67.2772L141.489 74.4905L138.234 74.4905L138.234 61.7771L141.398 61.7771L141.398 63.5804L141.579 63.5804C141.76 62.9492 142.122 62.4082 142.664 62.1377C143.207 61.7771 143.839 61.5967 144.472 61.5967C144.834 61.5967 145.105 61.5967 145.467 61.6869C145.828 61.7771 146.1 61.8672 146.28 62.0476Z" fill="#09D6B6"/>
<path d="M157.4 74.4906L154.235 74.4906L154.235 72.9578L154.055 72.9578C153.874 73.4086 153.512 73.7693 152.97 74.13C152.427 74.4906 151.794 74.671 150.89 74.671C149.896 74.671 149.082 74.4005 148.359 73.9496C147.636 73.4086 147.003 72.6873 146.551 71.6955C146.099 70.7036 145.918 69.5315 145.918 68.0888C145.918 66.6462 146.189 65.474 146.641 64.4822C147.093 63.4903 147.726 62.769 148.449 62.3182C149.263 61.8673 150.077 61.5968 150.981 61.5968C151.794 61.5968 152.518 61.7772 153.06 62.1378C153.603 62.4985 153.964 62.8592 154.145 63.31L154.235 63.31L154.235 57.5394L157.4 57.5394L157.4 74.4906ZM148.901 68.0888C148.901 69.261 149.173 70.2528 149.625 70.9741C150.077 71.6955 150.8 72.0561 151.794 72.0561C152.427 72.0561 152.97 71.8758 153.422 71.5151C153.783 71.1545 154.145 70.7036 154.326 70.0725C154.507 69.4413 154.597 68.8101 154.597 68.0888C154.597 67.0068 154.416 66.015 153.964 65.2937C153.512 64.5723 152.879 64.2117 151.885 64.2117C150.89 64.2117 150.258 64.5723 149.715 65.2937C149.173 66.015 148.901 66.9167 148.901 68.0888Z" fill="#09D6B6"/>
<path d="M79.9211 59.1623C75.7624 59.1623 72.4173 55.7359 72.4173 51.5883C72.4173 47.4406 75.7624 44.1045 79.9211 44.1045C84.0799 44.1045 87.425 47.4406 87.425 51.5883C87.5154 55.736 84.0799 59.1623 79.9211 59.1623ZM79.9211 47.08C77.3897 47.08 75.4008 49.1538 75.4008 51.5883C75.4008 54.113 77.4801 56.0966 79.9211 56.0966C82.4525 56.0966 84.4415 54.0228 84.4415 51.5883C84.5319 49.1538 82.4525 47.08 79.9211 47.08Z" fill="#09D6B6"/>
</g>
</g>
<defs>
<filter id="filter0_di" x="0.978821" y="0.208496" width="228" height="363" filterUnits="userSpaceOnUse" color-interpolation-filters="sRGB">
<feFlood flood-opacity="0" result="BackgroundImageFix"/>
<feColorMatrix in="SourceAlpha" type="matrix" values="0 0 0 0 0 0 0 0 0 0 0 0 0 0 0 0 0 0 127 0"/>
<feOffset dx="-1" dy="1"/>
<feColorMatrix type="matrix" values="0 0 0 0 0.8 0 0 0 0 0.8 0 0 0 0 0.8 0 0 0 1 0"/>
<feBlend mode="normal" in2="BackgroundImageFix" result="effect1_dropShadow"/>
<feBlend mode="normal" in="SourceGraphic" in2="effect1_dropShadow" result="shape"/>
<feColorMatrix in="SourceAlpha" type="matrix" values="0 0 0 0 0 0 0 0 0 0 0 0 0 0 0 0 0 0 127 0" result="hardAlpha"/>
<feOffset dy="2"/>
<feComposite in2="hardAlpha" operator="arithmetic" k2="-1" k3="1"/>
<feColorMatrix type="matrix" values="0 0 0 0 1 0 0 0 0 1 0 0 0 0 1 0 0 0 0.4 0"/>
<feBlend mode="normal" in2="shape" result="effect2_innerShadow"/>
</filter>
<linearGradient id="paint0_linear" x1="41.203" y1="57.0618" x2="233.708" y2="373.054" gradientUnits="userSpaceOnUse">
<stop stop-color="white"/>
<stop offset="0.237187" stop-color="white" stop-opacity="0"/>
</linearGradient>
<linearGradient id="paint1_linear" x1="90.3986" y1="317.724" x2="118.171" y2="290.538" gradientUnits="userSpaceOnUse">
<stop stop-color="#F1D373"/>
<stop offset="1" stop-color="#D3B550"/>
</linearGradient>
<clipPath id="clip0">
<path d="M21.9788 362.208C10.9331 362.208 1.97882 353.254 1.97882 342.208L1.97882 20.2085C1.97882 9.1628 10.9331 0.208496 21.9788 0.208496H208.979C220.025 0.208496 228.979 9.1628 228.979 20.2085L228.979 342.208C228.979 353.254 220.025 362.208 208.979 362.208H21.9788Z" fill="white"/>
</clipPath>
</defs>
</svg>
