<svg width="228" height="363" viewBox="0 0 228 363" fill="none" xmlns="http://www.w3.org/2000/svg">
<g filter="url(#filter0_di)">
<g clip-path="url(#clip0)">
<path d="M21 362C9.95431 362 1 353.046 1 342L1 20C1 8.95431 9.95431 0 21 0H208C219.046 0 228 8.95431 228 20L228 342C228 353.046 219.046 362 208 362H21Z" fill="#09D7B7"/>
<path d="M21 362C9.95431 362 1 353.046 1 342L1 20C1 8.95431 9.95431 0 21 0H208C219.046 0 228 8.95431 228 20L228 342C228 353.046 219.046 362 208 362H21Z" fill="url(#paint0_linear)" fill-opacity="0.2"/>
<path fill-rule="evenodd" clip-rule="evenodd" d="M135.269 310.367C135.572 305.232 132.855 300.587 128.621 297.892L127.762 299.241C131.565 301.662 133.936 305.783 133.672 310.273C133.436 314.267 131.161 317.726 127.772 319.84L128.619 321.197C132.397 318.84 135 314.936 135.269 310.367ZM129.51 309.904C129.692 306.815 127.98 303.958 125.158 302.23L125.994 300.866C129.228 302.847 131.331 306.22 131.108 309.999C130.91 313.356 128.917 316.224 126.03 317.92L125.219 316.541C127.711 315.077 129.348 312.658 129.51 309.904ZM123.734 303.874C125.746 305.144 127.081 307.339 126.935 309.82C126.805 312.031 125.557 313.905 123.701 314.995L122.89 313.617C124.321 312.776 125.241 311.364 125.338 309.725C125.445 307.906 124.471 306.231 122.88 305.227L123.734 303.874Z" fill="white"/>
<path fill-rule="evenodd" clip-rule="evenodd" d="M78.9751 323.861L78.9751 291.679C78.9751 289.8 80.5962 288.277 82.5959 288.277H111.563C113.562 288.277 115.183 289.8 115.183 291.679V323.861C115.183 325.739 113.562 327.262 111.563 327.262H82.5959C80.5962 327.262 78.9751 325.739 78.9751 323.861Z" fill="url(#paint1_linear)"/>
<path fill-rule="evenodd" clip-rule="evenodd" d="M78.9751 317.698V316.912H87.5031V316.023C87.5031 314.36 88.9422 313.011 90.7177 313.01V302.788C89.33 302.732 88.1702 301.852 87.7819 300.657V300.666H78.9751V299.88H87.6448C87.6436 299.846 87.643 299.812 87.643 299.778L87.643 288.277H88.4818L88.4818 299.778C88.4818 301.008 89.5459 302.005 90.8585 302.005H95.4711L95.4711 288.482H96.3099L96.3099 302.005H103.441C104.753 302.005 105.817 301.008 105.817 299.778L105.817 288.277H106.656L106.656 299.618H115.184V300.404H106.587C106.279 301.768 104.987 302.791 103.441 302.791H101.343V313.01H103.301C105.077 313.01 106.516 314.359 106.516 316.023V317.174H115.184V317.96H106.516V327.262H105.678V316.023C105.678 314.793 104.614 313.796 103.301 313.796H96.3099V327.262H95.4711V313.796H90.7185C89.406 313.796 88.3419 314.793 88.3419 316.023V327.262H87.5031V317.698H78.9751ZM100.504 313.01H91.5566V302.791H100.504V313.01Z" fill="#826B1F" fill-opacity="0.8"/>
<path d="M85.3612 74.2822L81.7449 69.0525L80.66 70.3148L80.66 74.2822L77.4053 74.2822L77.4053 55.9784L80.66 55.9784L80.66 66.2574L80.8408 66.2574L84.8187 61.5687L88.6158 61.5687L83.9146 66.9787L88.887 74.2822L85.3612 74.2822Z" fill="white"/>
<path d="M94.4927 74.4623C93.227 74.4623 92.1421 74.1918 91.238 73.6508C90.3339 73.1098 89.6107 72.3884 89.0682 71.3966C88.5258 70.4048 88.345 69.3228 88.345 67.9703C88.345 66.708 88.6162 65.5358 89.0682 64.544C89.5203 63.5521 90.2435 62.7406 91.1476 62.1996C92.0517 61.6586 93.1366 61.298 94.4023 61.298C95.4872 61.298 96.4816 61.5685 97.2953 62.0193C98.1994 62.4701 98.8322 63.1915 99.3747 64.0931C99.9171 64.9948 100.098 66.167 100.098 67.5195L100.098 68.872L91.5092 68.872C91.5996 69.7736 91.9613 70.5851 92.4133 71.1261C92.9557 71.6671 93.5886 71.9376 94.5831 71.9376C95.3063 71.9376 95.9392 71.7573 96.3008 71.3966C96.6624 71.0359 96.9337 70.6753 97.1145 70.1343L100.008 70.9458C99.8267 71.4868 99.5555 72.1179 99.1034 72.6589C98.6514 73.1999 98.109 73.6508 97.2953 74.0114C96.4816 74.2819 95.5776 74.4623 94.4927 74.4623ZM94.3119 64.003C93.5886 64.003 92.9557 64.2735 92.5037 64.7243C92.0517 65.1751 91.69 65.8063 91.5092 66.708L97.0241 66.708C97.0241 65.9866 96.7529 65.3555 96.3008 64.8145C95.7584 64.2735 95.1255 64.003 94.3119 64.003Z" fill="white"/>
<path d="M104.527 74.8227L104.798 74.1916L100.188 61.5683L103.533 61.5683L106.335 69.9537L106.516 69.9537L109.319 61.5683L112.664 61.5683L107.239 76.1752C107.059 76.626 106.787 77.167 106.426 77.6179C106.064 78.0687 105.612 78.5195 105.07 78.79C104.527 79.0605 103.804 79.2409 102.99 79.2409C102.629 79.2409 102.357 79.2409 101.996 79.1507C101.634 79.0605 101.453 78.9704 101.182 78.8802L101.905 76.3555C102.719 76.5359 103.261 76.5359 103.623 76.2654C103.894 76.0851 104.256 75.544 104.527 74.8227Z" fill="white"/>
<path d="M123.965 65.6258L120.981 66.0766C120.801 65.4454 120.529 64.9946 120.168 64.6339C119.806 64.2733 119.264 64.0929 118.54 64.0929C117.546 64.0929 116.913 64.4536 116.371 65.1749C115.919 65.8963 115.647 66.7979 115.647 67.9701C115.647 69.1422 115.919 70.1341 116.371 70.8554C116.823 71.5767 117.546 71.9374 118.54 71.9374C119.173 71.9374 119.716 71.7571 120.077 71.3964C120.439 71.0357 120.801 70.5849 120.891 70.0439L123.875 70.4947C123.603 71.6669 122.97 72.6587 122.066 73.4702C121.072 74.1916 119.897 74.6424 118.45 74.6424C117.184 74.6424 116.19 74.3719 115.286 73.8309C114.382 73.2899 113.749 72.4784 113.206 71.4866C112.754 70.4947 112.483 69.3226 112.483 68.0602C112.483 66.7979 112.754 65.6258 113.206 64.6339C113.658 63.6421 114.382 62.9208 115.286 62.3798C116.19 61.8388 117.184 61.5683 118.45 61.5683C119.897 61.5683 121.072 61.9289 122.066 62.7404C123.151 63.2814 123.784 64.3634 123.965 65.6258Z" fill="white"/>
<path d="M132.373 72.8391L132.192 72.8391C132.011 73.1997 131.65 73.6506 131.107 74.0112C130.565 74.3719 129.842 74.5522 128.938 74.5522C128.214 74.5522 127.491 74.3719 126.858 74.1014C126.225 73.8309 125.773 73.3801 125.321 72.8391C124.96 72.2981 124.779 71.5767 124.779 70.7652C124.779 69.5029 125.231 68.6012 126.135 67.9701C127.039 67.3389 128.305 66.9782 129.932 66.7979C130.294 66.7979 130.655 66.7078 131.017 66.7078C131.379 66.7078 131.65 66.6176 131.921 66.5274C132.102 66.4373 132.283 66.2569 132.283 66.0766L132.283 65.8963C132.283 65.3553 132.102 64.9044 131.74 64.5438C131.379 64.2733 130.926 64.0929 130.384 64.0929C129.751 64.0929 129.299 64.2733 128.847 64.5438C128.395 64.8143 128.214 65.1749 128.033 65.6258L125.05 65.1749C125.321 64.0028 125.954 63.1011 126.949 62.4699C127.943 61.8388 129.118 61.5683 130.474 61.5683C131.288 61.5683 132.102 61.7486 132.915 62.0191C133.639 62.2896 134.272 62.7404 134.814 63.3716C135.266 64.0028 135.537 64.9044 135.537 65.8963L135.537 74.4621L132.373 74.4621L132.373 72.8391ZM132.192 70.0439L132.192 68.3307C132.102 68.4209 131.921 68.5111 131.74 68.6012C131.469 68.6914 131.198 68.6914 130.927 68.7816C130.655 68.8717 130.384 68.8717 130.203 68.8717C129.48 68.9619 128.847 69.1422 128.485 69.4127C128.124 69.6832 127.943 70.1341 127.943 70.6751C127.943 71.1259 128.124 71.4866 128.395 71.7571C128.757 72.0276 129.118 72.1177 129.661 72.1177C130.384 72.1177 130.927 71.9374 131.469 71.4866C132.011 71.0357 132.192 70.5849 132.192 70.0439Z" fill="white"/>
<path d="M145.302 61.8391L144.307 64.6342C144.217 64.5441 144.036 64.5441 143.855 64.4539C143.674 64.3637 143.403 64.3637 143.132 64.3637C142.589 64.3637 142.137 64.4539 141.776 64.7244C141.414 64.9949 141.053 65.3556 140.872 65.7162C140.691 66.1671 140.51 66.6179 140.51 67.0687L140.51 74.282L137.255 74.282L137.255 61.5686L140.42 61.5686L140.42 63.3719L140.6 63.3719C140.781 62.7407 141.143 62.1997 141.685 61.9292C142.228 61.5686 142.861 61.3882 143.494 61.3882C143.855 61.3882 144.126 61.3882 144.488 61.4784C144.85 61.5686 145.121 61.6587 145.302 61.8391Z" fill="white"/>
<path d="M156.421 74.2821L153.257 74.2821L153.257 72.7493L153.076 72.7493C152.895 73.2001 152.533 73.5608 151.991 73.9215C151.448 74.2821 150.816 74.4625 149.912 74.4625C148.917 74.4625 148.103 74.192 147.38 73.7411C146.657 73.2001 146.024 72.4788 145.572 71.487C145.12 70.4951 144.939 69.323 144.939 67.8803C144.939 66.4377 145.21 65.2655 145.662 64.2737C146.114 63.2818 146.747 62.5605 147.471 62.1097C148.284 61.6588 149.098 61.3883 150.002 61.3883C150.816 61.3883 151.539 61.5687 152.081 61.9293C152.624 62.29 152.985 62.6507 153.166 63.1015L153.257 63.1015L153.257 57.3309L156.421 57.3309L156.421 74.2821ZM147.923 67.8803C147.923 69.0525 148.194 70.0443 148.646 70.7656C149.098 71.487 149.821 71.8476 150.816 71.8476C151.448 71.8476 151.991 71.6673 152.443 71.3066C152.805 70.946 153.166 70.4951 153.347 69.864C153.528 69.2328 153.618 68.6017 153.618 67.8803C153.618 66.7983 153.437 65.8065 152.985 65.0852C152.533 64.3638 151.901 64.0032 150.906 64.0032C149.912 64.0032 149.279 64.3638 148.736 65.0852C148.194 65.8065 147.923 66.7082 147.923 67.8803Z" fill="white"/>
<path d="M78.9423 58.9538C74.7836 58.9538 71.4385 55.5275 71.4385 51.3798C71.4385 47.2322 74.7836 43.896 78.9423 43.896C83.1011 43.896 86.4461 47.2322 86.4461 51.3798C86.5365 55.5275 83.1011 58.9538 78.9423 58.9538ZM78.9423 46.8715C76.4109 46.8715 74.4219 48.9453 74.4219 51.3798C74.4219 53.9045 76.5013 55.8881 78.9423 55.8881C81.4737 55.8881 83.4627 53.8143 83.4627 51.3798C83.5531 48.9453 81.4737 46.8715 78.9423 46.8715Z" fill="white"/>
</g>
</g>
<defs>
<filter id="filter0_di" x="0" y="0" width="228" height="363" filterUnits="userSpaceOnUse" color-interpolation-filters="sRGB">
<feFlood flood-opacity="0" result="BackgroundImageFix"/>
<feColorMatrix in="SourceAlpha" type="matrix" values="0 0 0 0 0 0 0 0 0 0 0 0 0 0 0 0 0 0 127 0"/>
<feOffset dx="-1" dy="1"/>
<feColorMatrix type="matrix" values="0 0 0 0 0 0 0 0 0 0.720833 0 0 0 0 0.608859 0 0 0 1 0"/>
<feBlend mode="normal" in2="BackgroundImageFix" result="effect1_dropShadow"/>
<feBlend mode="normal" in="SourceGraphic" in2="effect1_dropShadow" result="shape"/>
<feColorMatrix in="SourceAlpha" type="matrix" values="0 0 0 0 0 0 0 0 0 0 0 0 0 0 0 0 0 0 127 0" result="hardAlpha"/>
<feOffset dy="2"/>
<feComposite in2="hardAlpha" operator="arithmetic" k2="-1" k3="1"/>
<feColorMatrix type="matrix" values="0 0 0 0 1 0 0 0 0 1 0 0 0 0 1 0 0 0 0.4 0"/>
<feBlend mode="normal" in2="shape" result="effect2_innerShadow"/>
</filter>
<linearGradient id="paint0_linear" x1="40.2242" y1="56.8533" x2="232.729" y2="372.845" gradientUnits="userSpaceOnUse">
<stop stop-color="white"/>
<stop offset="0.237187" stop-color="white" stop-opacity="0"/>
</linearGradient>
<linearGradient id="paint1_linear" x1="89.4198" y1="317.516" x2="117.192" y2="290.329" gradientUnits="userSpaceOnUse">
<stop stop-color="#F1D373"/>
<stop offset="1" stop-color="#D3B550"/>
</linearGradient>
<clipPath id="clip0">
<path d="M21 362C9.95431 362 1 353.046 1 342L1 20C1 8.95431 9.95431 0 21 0H208C219.046 0 228 8.95431 228 20L228 342C228 353.046 219.046 362 208 362H21Z" fill="white"/>
</clipPath>
</defs>
</svg>
