<svg width="526" height="517" viewBox="0 0 526 517" fill="none" xmlns="http://www.w3.org/2000/svg">
<ellipse cx="262.667" cy="8.5361" rx="8.54831" ry="8.5361" fill="black" fill-opacity="0.2"/>
<ellipse rx="8.54688" ry="8.53753" transform="matrix(0.93985 -0.341589 0.342452 0.939535 174.956 23.98)" fill="#09D9B9"/>
<ellipse rx="8.54688" ry="8.53753" transform="matrix(0.93985 -0.341589 0.342452 0.939535 350.377 505.259)" fill="black" fill-opacity="0.2"/>
<ellipse rx="8.54327" ry="8.54115" transform="matrix(0.766497 -0.642248 0.643327 0.765592 97.8248 68.4479)" fill="black" fill-opacity="0.2"/>
<ellipse rx="8.54327" ry="8.54115" transform="matrix(0.766497 -0.642248 0.643327 0.765592 427.509 460.79)" fill="#09D9B9"/>
<ellipse rx="8.53915" ry="8.54526" transform="matrix(0.500536 -0.865716 0.866335 0.499464 40.5749 136.578)" fill="#09D9B9"/>
<ellipse rx="8.53915" ry="8.54526" transform="matrix(0.500536 -0.865716 0.866335 0.499464 484.758 392.661)" fill="black" fill-opacity="0.2"/>
<ellipse cx="10.1108" cy="220.153" rx="8.53647" ry="8.54794" transform="rotate(-80 10.1108 220.153)" fill="black" fill-opacity="0.2"/>
<ellipse rx="8.53647" ry="8.54794" transform="matrix(0.173889 -0.984765 0.98485 0.173408 515.22 309.087)" fill="#09D9B9"/>
<ellipse rx="8.53647" ry="8.54794" transform="matrix(-0.173889 -0.984765 0.98485 -0.173408 10.1131 309.087)" fill="#09D9B9"/>
<ellipse opacity="0.2" rx="8.53647" ry="8.54794" transform="matrix(-0.173889 -0.984765 0.98485 -0.173408 515.22 220.151)" fill="#0E1C36"/>
<ellipse rx="8.53915" ry="8.54526" transform="matrix(-0.500536 -0.865716 0.866335 -0.499464 40.5747 392.66)" fill="black" fill-opacity="0.2"/>
<ellipse rx="8.53915" ry="8.54526" transform="matrix(-0.500536 -0.865716 0.866335 -0.499464 484.758 136.578)" fill="#09D9B9"/>
<ellipse rx="8.54327" ry="8.54115" transform="matrix(-0.766497 -0.642248 0.643327 -0.765592 97.8241 460.79)" fill="#09D9B9"/>
<ellipse rx="8.54327" ry="8.54115" transform="matrix(-0.766497 -0.642248 0.643327 -0.765592 427.509 68.4482)" fill="black" fill-opacity="0.2"/>
<ellipse rx="8.54688" ry="8.53753" transform="matrix(-0.93985 -0.341589 0.342452 -0.939535 350.377 23.9796)" fill="#09D9B9"/>
</svg>
