<svg width="35" height="34" viewBox="0 0 35 34" fill="none" xmlns="http://www.w3.org/2000/svg">
<path fill-rule="evenodd" clip-rule="evenodd" d="M17.3333 0C7.76038 0 0 7.61126 0 17C0 26.3889 7.76038 34 17.3333 34C26.9063 34 34.6667 26.3889 34.6667 17C34.6667 7.61126 26.9063 0 17.3333 0Z" fill="white"/>
<path fill-rule="evenodd" clip-rule="evenodd" d="M17.9154 16.2546C18.7858 16.3435 19.6562 16.4323 20.7263 16.3739C23.6255 16.2154 25.3818 14.7559 25.2571 12.5744C25.1301 10.3548 22.7936 8.98732 20.4559 9.11518C16.6461 9.32337 13.8445 12.6039 13.529 16.3534C14.0464 16.2345 14.5909 16.1635 15.1045 16.1355C16.1747 16.077 17.045 16.1658 17.9154 16.2546ZM10.4469 21.107C10.5671 23.1416 12.7807 24.3951 14.9955 24.2779C18.6047 24.087 21.259 21.0799 21.5578 17.6429C21.0676 17.7519 20.5518 17.817 20.0652 17.8427C19.0514 17.8963 18.2267 17.8149 17.4021 17.7334C16.5775 17.652 15.7529 17.5706 14.7391 17.6242C11.9926 17.7695 10.3287 19.1072 10.4469 21.107Z" fill="#0E1C36"/>
</svg>
